<?xml version="1.0" encoding="UTF-8"?>
<svg width="48px" height="16px" viewBox="0 0 48 16" version="1.1" xmlns="http://www.w3.org/2000/svg" xmlns:xlink="http://www.w3.org/1999/xlink">
    <g id="Symbols" stroke="none" stroke-width="1" fill="none" fill-rule="evenodd">
        <g transform="translate(-272.000000, 0.000000)" fill="#0176DE">
            <g>
                <path d="M319.999999,7.99862356 C320,7.9990823 320,7.99954111 320,8 C320,8.00045889 320,8.0009177 319.999999,8.00137644 C319.999683,8.23695673 319.918232,8.47244231 319.755645,8.65920128 L313.646473,15.6766505 C313.296166,16.0790401 312.698312,16.1101069 312.311129,15.7460401 C311.923947,15.3819733 311.894054,14.7606376 312.244362,14.3582479 L316.909085,9 L273.088579,9 C272.487374,9 272,8.55228475 272,8 C272,7.44771525 272.487374,7 273.088579,7 L316.909085,7 L312.244362,1.64175206 C311.894054,1.23936242 311.923947,0.618026698 312.311129,0.253959882 C312.698312,-0.110106935 313.296166,-0.0790401485 313.646473,0.323349491 L319.755645,7.34079872 C319.918232,7.52755769 319.999683,7.76304327 319.999999,7.99862356 Z" id="arrow-forward"></path>
            </g>
        </g>
    </g>
</svg>
