<?xml version="1.0" encoding="UTF-8"?>
<svg width="146px" height="23px" viewBox="0 0 146 23" version="1.1" xmlns="http://www.w3.org/2000/svg" xmlns:xlink="http://www.w3.org/1999/xlink">
    <!-- Generator: Sketch 53.2 (72643) - https://sketchapp.com -->
    <title>Group</title>
    <desc>Created with Sketch.</desc>
    <g id="Symbols-Mobile" stroke="none" stroke-width="1" fill="none" fill-rule="evenodd">
        <g id="00-Logos/UC/Blanco/Mobile/Comprimido📱" fill="#FFFFFF" fill-rule="nonzero">
            <g id="Group" transform="translate(0.410022, 0.182222)">
                <path d="M1.01442867,2.92055556 C1.01442867,1.51666667 1.01442867,1.25611111 1.01442867,0.976111111 C1.01442867,0.696111111 0.920487653,0.513333333 0.623007761,0.447222222 C0.502879001,0.426154367 0.380935759,0.417035218 0.258986313,0.42 C0.157216876,0.42 0.102417948,0.42 0.102417948,0.334444444 C0.102417948,0.248888889 0.165045294,0.252777778 0.305956822,0.252777778 C0.799147171,0.252777778 1.39019275,0.28 1.64853055,0.28 C2.03995146,0.28 2.5722839,0.252777778 2.99893269,0.252777778 C4.17319543,0.252777778 4.58810159,0.641666667 4.73292733,0.781666667 C5.02687885,1.07434911 5.1952343,1.46881904 5.20263243,1.88222222 C5.22074547,2.48848196 4.98356294,3.07478139 4.54819257,3.49995397 C4.11282221,3.92512654 3.51871081,4.15064942 2.90890588,4.12222222 C2.84372751,4.12610218 2.7783738,4.12610218 2.71319543,4.12222222 C2.66622492,4.12222222 2.59968336,4.12222222 2.59968336,4.04055556 C2.59968336,3.95888889 2.66622492,3.93555556 2.86193537,3.93555556 C3.61362776,3.82410726 4.15537254,3.16100865 4.11056808,2.40722222 C4.14060704,1.88639593 3.93880637,1.378759 3.5586646,1.01888889 C3.30511091,0.785996655 2.97238949,0.656824695 2.62708283,0.657222222 C2.50452427,0.653609502 2.38204523,0.666694098 2.26306138,0.696111111 C2.21609087,0.696111111 2.18869141,0.77 2.18869141,0.871111111 L2.18869141,4.57722222 C2.18869141,5.42888889 2.18869141,6.16 2.23566192,6.55666667 C2.26306138,6.81722222 2.32177452,7.01944444 2.59968336,7.05833333 C2.75665239,7.07994158 2.91484335,7.09163173 3.07330267,7.09333333 C3.17898631,7.09333333 3.22595682,7.12444444 3.22595682,7.16722222 C3.22595682,7.21 3.15158685,7.26055556 3.0459032,7.26055556 C2.43137237,7.26055556 1.844241,7.23333333 1.60156004,7.23333333 C1.35887907,7.23333333 0.818718216,7.26055556 0.427297305,7.26055556 C0.305956822,7.26055556 0.243329477,7.23333333 0.243329477,7.16722222 C0.243329477,7.10111111 0.278557359,7.09333333 0.392069423,7.09333333 C0.503953848,7.09433741 0.615585289,7.08259407 0.724777198,7.05833333 C0.912659235,7.01944444 0.959629745,6.81722222 0.994857627,6.54888889 C1.04182814,6.16 1.04182814,5.42888889 1.04182814,4.57722222 L1.01442867,2.92055556 Z" id="Shape"></path>
                <path d="M12.6161445,3.91222222 C12.6161445,1.83944444 11.4144823,0.552222222 9.87619811,0.552222222 C8.80370481,0.552222222 7.58247157,1.14333333 7.58247157,3.44944444 C7.58247157,5.39388889 8.65496487,6.90277778 10.4476726,6.90277778 C11.0974314,6.90277778 12.6083161,6.58777778 12.6083161,3.91222222 M6.29861098,3.73722222 C6.29861098,2.15444444 7.35153323,0.108888889 10.1462785,0.108888889 C12.4674045,0.108888889 13.9117477,1.45055556 13.9117477,3.57 C13.9524918,4.59674032 13.5573415,5.59328061 12.8226899,6.31652427 C12.0880383,7.03976793 11.0814321,7.42321723 10.0484233,7.37333333 C7.37501848,7.37333333 6.29469677,5.38222222 6.29469677,3.74111111" id="Shape"></path>
                <path d="M16.5303536,5.97722222 C16.5499247,6.70055556 16.6712651,6.94166667 16.8591472,7.00777778 C17.0151016,7.05464571 17.177762,7.07566792 17.3405949,7.07 C17.4462785,7.07 17.5010775,7.07 17.5010775,7.14388889 C17.5010775,7.21777778 17.4149649,7.23722222 17.285796,7.23722222 C16.6790936,7.23722222 16.3072437,7.21 16.1115332,7.21 C16.0254206,7.21 15.5870292,7.23722222 15.1055815,7.23722222 C14.984241,7.23722222 14.8981284,7.23722222 14.8981284,7.14388889 C14.8981284,7.05055556 14.9529273,7.07 15.0468684,7.07 C15.187954,7.07326877 15.3288368,7.05757103 15.4656887,7.02333333 C15.7083697,6.94944444 15.7475118,6.68111111 15.7553402,5.87611111 L15.8375386,0.392777778 C15.8375386,0.21 15.8688523,0.0777777778 15.9627933,0.0777777778 C16.0567343,0.0777777778 16.1467611,0.198333333 16.3072437,0.365555556 C16.4677263,0.532777778 17.8337852,1.995 19.19593,3.34055556 C19.8300319,3.97055556 21.086493,5.30444444 21.2469756,5.44833333 L21.2939461,5.44833333 L21.2000051,1.29111111 C21.2000051,0.727222222 21.1060641,0.552222222 20.8829541,0.458888889 C20.7225931,0.414409974 20.5560408,0.396023871 20.3897638,0.404444444 C20.2762517,0.404444444 20.2410238,0.377222222 20.2410238,0.318888889 C20.2410238,0.260555556 20.3427933,0.237222222 20.4837048,0.237222222 C20.9690667,0.237222222 21.4152866,0.264444444 21.610997,0.264444444 C21.7127665,0.264444444 22.0650453,0.237222222 22.5230078,0.237222222 C22.6443482,0.237222222 22.7382893,0.237222222 22.7382893,0.318888889 C22.7382893,0.400555556 22.6834903,0.404444444 22.5699783,0.404444444 C22.4765216,0.400738101 22.3829982,0.409899067 22.2920694,0.431666667 C22.0298174,0.505555556 21.9554474,0.7 21.947619,1.20944444 L21.8419354,7.04277778 C21.8419354,7.245 21.8067075,7.33055556 21.7205949,7.33055556 C21.6344823,7.33055556 21.5092276,7.22944444 21.403544,7.12444444 C20.8164126,6.56833333 19.626493,5.355 18.6635976,4.40222222 C17.7007021,3.44944444 16.612552,2.24388889 16.444241,2.06888889 L16.4168415,2.06888889 L16.5303536,5.97722222 Z" id="Shape"></path>
                <path d="M26.4489595,0.762222222 L25.0594153,0.801111111 C24.5192544,0.801111111 24.2961445,0.867222222 24.155233,1.06944444 C24.0855859,1.1677816 24.0326906,1.27682933 23.9986646,1.39222222 C23.9986646,1.46611111 23.9516941,1.505 23.892981,1.505 C23.8342678,1.505 23.8107826,1.45833333 23.8107826,1.35333333 C23.8107826,1.24833333 23.986922,0.365555556 24.006493,0.291666667 C24.0260641,0.217777778 24.0612919,0.112777778 24.1200051,0.112777778 C24.2466996,0.162281022 24.3777314,0.200034449 24.511426,0.225555556 C24.7815064,0.252777778 25.1376994,0.272222222 25.4430078,0.272222222 L29.134107,0.272222222 C29.435462,0.274460787 29.7361211,0.243154493 30.0304608,0.178888889 C30.0970024,0.178888889 30.1048308,0.237222222 30.1048308,0.373333333 C30.1048308,0.509444444 30.0774314,1.20944444 30.0774314,1.44666667 C30.0774314,1.54 30.0500319,1.59833333 29.9913188,1.59833333 C29.9326056,1.59833333 29.9012919,1.55166667 29.8895493,1.41166667 L29.8895493,1.31055556 C29.8699783,1.06944444 29.6194689,0.808888889 28.7896566,0.789444444 L27.6153938,0.762222222 L27.6153938,4.56166667 C27.6153938,5.40944444 27.6153938,6.14444444 27.6623643,6.54111111 C27.6897638,6.80166667 27.7445627,7.00388889 28.0263858,7.04277778 C28.1833389,7.06453374 28.3415394,7.0762246 28.5000051,7.07777778 C28.6017745,7.07777778 28.648745,7.10888889 28.648745,7.15555556 C28.648745,7.20222222 28.5743751,7.245 28.4726056,7.245 C27.8580748,7.245 27.2709434,7.21777778 27.0086914,7.21777778 C26.7464394,7.21777778 26.2062785,7.245 25.8344287,7.245 C25.7130882,7.245 25.6504608,7.21777778 25.6504608,7.15555556 C25.6504608,7.09333333 25.6856887,7.07777778 25.7952866,7.07777778 C25.9084736,7.07897687 26.0214237,7.06723298 26.1319086,7.04277778 C26.3197906,7.00388889 26.3745895,6.80166667 26.401989,6.53333333 C26.4489595,6.14444444 26.4489595,5.40944444 26.4489595,4.56166667 L26.4489595,0.762222222 Z" id="Shape"></path>
                <path d="M32.1597906,2.92055556 C32.1597906,1.51666667 32.1597906,1.25611111 32.1597906,0.976111111 C32.1597906,0.696111111 32.0462785,0.501666667 31.8388255,0.455 C31.7298394,0.429515329 31.6180588,0.417756308 31.5061177,0.42 C31.4121767,0.42 31.3573777,0.42 31.3573777,0.326666667 C31.3573777,0.233333333 31.4317477,0.252777778 31.5804877,0.252777778 C31.9327665,0.252777778 32.5238121,0.28 32.7938925,0.28 C33.0639729,0.28 33.5767343,0.252777778 33.9290131,0.252777778 C34.0503536,0.252777778 34.1247236,0.252777778 34.1247236,0.326666667 C34.1247236,0.400555556 34.0660104,0.42 33.9759836,0.42 C33.8813943,0.420334665 33.7870434,0.429448339 33.6941606,0.447222222 C33.4436512,0.493888889 33.3692812,0.649444444 33.3497102,0.976111111 C33.3301391,1.30277778 33.3497102,1.53222222 33.3497102,2.92055556 L33.3497102,4.55388889 C33.3497102,5.44833333 33.3497102,6.18333333 33.3849381,6.58 C33.4123375,6.83277778 33.4788791,6.99611111 33.7567879,7.035 C33.9150693,7.05660664 34.0745623,7.0682964 34.2343214,7.07 C34.3360909,7.07 34.3830614,7.10111111 34.3830614,7.14388889 C34.3830614,7.18666667 34.3086914,7.23722222 34.206922,7.23722222 C33.5923911,7.23722222 33.0052598,7.21 32.7508362,7.21 C32.4964126,7.21 31.9484233,7.23722222 31.5765734,7.23722222 C31.455233,7.23722222 31.3926056,7.21 31.3926056,7.14388889 C31.3926056,7.07777778 31.4278335,7.07 31.5413456,7.07 C31.65323,7.07100408 31.7648614,7.05926074 31.8740533,7.035 C32.0619354,6.99611111 32.1167343,6.84055556 32.1441338,6.57222222 C32.1911043,6.18333333 32.1911043,5.44833333 32.1911043,4.55388889 L32.1597906,2.92055556 Z" id="Shape"></path>
                <path d="M37.7062249,4.55388889 C37.7062249,5.44055556 37.7062249,6.13666667 37.7531954,6.52555556 C37.7805949,6.79388889 37.8353938,6.99611111 38.1172169,7.035 C38.2715921,7.05632329 38.4271606,7.06801287 38.5830078,7.07 C38.7043482,7.07 38.7395761,7.10111111 38.7395761,7.14388889 C38.7395761,7.18666667 38.6769488,7.23722222 38.5360373,7.23722222 C37.9489059,7.23722222 37.3617745,7.21 37.1190936,7.21 C36.8764126,7.21 36.2892812,7.23722222 35.9448308,7.23722222 C35.8117477,7.23722222 35.7491204,7.21777778 35.7491204,7.14388889 C35.7491204,7.07 35.7843482,7.07 35.8861177,7.07 C35.9992935,7.07096235 36.1122165,7.05922127 36.2227397,7.035 C36.4067075,6.99611111 36.4575922,6.79388889 36.4928201,6.52555556 C36.5397906,6.13666667 36.5397906,5.44055556 36.5397906,4.55388889 L36.5397906,2.92055556 C36.5397906,1.51666667 36.5397906,1.25611111 36.5202196,0.976111111 C36.5006485,0.696111111 36.4262785,0.513333333 36.1287986,0.447222222 C36.0086476,0.426331277 35.886722,0.41721345 35.7647772,0.42 C35.6708362,0.42 35.6042946,0.42 35.6042946,0.346111111 C35.6042946,0.272222222 35.6825788,0.252777778 35.8195761,0.252777778 C36.3049381,0.252777778 36.8920694,0.28 37.1621499,0.28 C37.5183429,0.28 39.4089059,0.28 39.6241874,0.28 C39.7556445,0.280130613 39.8867804,0.267101855 40.0156083,0.241111111 C40.0638111,0.216256703 40.1151545,0.197944965 40.1682625,0.186666667 C40.2034903,0.186666667 40.2308898,0.221666667 40.2308898,0.268333333 C40.2308898,0.315 40.1839193,0.443333333 40.1565198,0.684444444 C40.1565198,0.777777778 40.1291204,1.32611111 40.1095493,1.435 C40.0899783,1.54388889 40.0821499,1.56722222 40.0156083,1.56722222 C39.9490667,1.56722222 39.9334099,1.52055556 39.9255815,1.41555556 C39.9304991,1.29611539 39.9105097,1.17695491 39.8668684,1.06555556 C39.7270761,0.870213668 39.4922955,0.764725801 39.2523375,0.789444444 L37.8158228,0.762222222 C37.7610238,0.762222222 37.7336244,0.789444444 37.7336244,0.890555556 L37.7336244,3.22388889 C37.7336244,3.27833333 37.7336244,3.30555556 37.8001659,3.30555556 L38.9939997,3.30555556 C39.1505681,3.30555556 39.279737,3.30555556 39.4128201,3.30555556 C39.5620479,3.31157286 39.7059821,3.25008156 39.804241,3.13833333 C39.8512115,3.08388889 39.8707826,3.045 39.9255815,3.045 C39.9803804,3.045 39.9803804,3.07222222 39.9803804,3.12666667 C39.9803804,3.18111111 39.9334099,3.41444444 39.9060104,3.70222222 C39.8864394,3.88888889 39.8707826,4.31277778 39.8707826,4.37888889 C39.8707826,4.445 39.8707826,4.55388889 39.7768415,4.55388889 C39.6829005,4.55388889 39.7024716,4.49166667 39.7024716,4.42555556 C39.6972381,4.32762682 39.6788075,4.23083795 39.6476726,4.13777778 C39.565062,3.945464 39.3802099,3.81600132 39.1701391,3.80333333 C38.9392008,3.77611111 37.9489059,3.77611111 37.7923375,3.77611111 C37.745367,3.77611111 37.725796,3.79555556 37.725796,3.86166667 L37.7062249,4.55388889 Z" id="Shape"></path>
                <path d="M42.461989,2.92055556 C42.461989,1.51666667 42.461989,1.25611111 42.4424179,0.976111111 C42.4228469,0.696111111 42.3289059,0.501666667 42.125367,0.455 C42.015088,0.429312715 41.9019874,0.417553169 41.788745,0.42 C41.694804,0.42 41.6400051,0.42 41.6400051,0.326666667 C41.6400051,0.233333333 41.7143751,0.252777778 41.863115,0.252777778 C42.219308,0.252777778 42.8064394,0.28 43.0765198,0.28 C43.3466003,0.28 43.8593616,0.252777778 44.2155547,0.252777778 C44.3368952,0.252777778 44.4112651,0.252777778 44.4112651,0.326666667 C44.4112651,0.400555556 44.352552,0.42 44.258611,0.42 C44.1653084,0.420158778 44.0722395,0.429275222 43.9807021,0.447222222 C43.7301927,0.493888889 43.6519086,0.649444444 43.6362517,0.976111111 C43.6205949,1.30277778 43.6166807,1.53222222 43.6166807,2.92055556 L43.6166807,4.55388889 C43.6166807,5.44833333 43.6166807,6.18333333 43.6519086,6.58 C43.6832222,6.83277778 43.7458496,6.99611111 44.0433295,7.035 C44.2002826,7.05675597 44.3584831,7.06844683 44.5169488,7.07 C44.6187182,7.07 44.6656887,7.10111111 44.6656887,7.14388889 C44.6656887,7.18666667 44.595233,7.23722222 44.4895493,7.23722222 C43.8750185,7.23722222 43.2878871,7.21 43.0334635,7.21 C42.7790399,7.21 42.2506217,7.23722222 41.8592008,7.23722222 C41.7417745,7.23722222 41.675233,7.21 41.675233,7.14388889 C41.675233,7.07777778 41.7104608,7.07 41.8239729,7.07 C41.9371487,7.07096235 42.0500718,7.05922127 42.1605949,7.035 C42.3445627,6.99611111 42.3993616,6.84055556 42.4306753,6.57222222 C42.4776458,6.18333333 42.4776458,5.44833333 42.4776458,4.55388889 L42.461989,2.92055556 Z" id="Shape"></path>
                <path d="M46.7441338,6.35833333 C46.0176595,5.67596253 45.6008555,4.72999745 45.5890512,3.73679487 C45.577247,2.74359229 45.9714524,1.78811266 46.6815064,1.08888889 C47.3508362,0.478333333 48.2471901,0.108888889 49.6249917,0.108888889 C50.0780032,0.106462979 50.5306056,0.136354639 50.979308,0.198333333 C51.3315868,0.245 51.6290667,0.330555556 51.9108898,0.357777778 C52.0126592,0.357777778 52.0478871,0.412222222 52.0478871,0.466666667 C52.0478871,0.521111111 52.0204877,0.653333333 52.0048308,0.976111111 C51.989174,1.29888889 52.0048308,1.79277778 51.9735171,1.97944444 C51.9422035,2.16611111 51.9461177,2.18944444 51.8639193,2.18944444 C51.7817209,2.18944444 51.7699783,2.11555556 51.7699783,1.98722222 C51.755839,1.66904016 51.6265781,1.36662068 51.4059568,1.13555556 C50.867757,0.720572579 50.1952046,0.515823376 49.5153938,0.56 C48.8753243,0.519874365 48.2451709,0.732293357 47.7618281,1.15111111 C47.0807557,1.76944444 46.9046163,2.65222222 46.9046163,3.55055556 C46.9046163,5.75166667 48.5916405,6.84833333 49.8402732,6.84833333 C50.6700855,6.84833333 51.1711043,6.755 51.5468684,6.32722222 C51.696271,6.14922158 51.804504,5.94079361 51.8639193,5.71666667 C51.8913188,5.56888889 51.9108898,5.53 51.9852598,5.53 C52.0596297,5.53 52.0674582,5.59611111 52.0674582,5.67 C52.0296781,6.08527184 51.9616536,6.49727708 51.8639193,6.90277778 C51.8426748,7.03161614 51.7479132,7.13639442 51.6212383,7.17111111 C51.0761812,7.32908301 50.5095819,7.40125404 49.9420426,7.385 C48.6660104,7.385 47.5935171,7.105 46.7441338,6.37388889" id="Shape"></path>
                <path d="M54.2555011,2.92055556 C54.2555011,1.51666667 54.2555011,1.25611111 54.23593,0.976111111 C54.216359,0.696111111 54.1224179,0.501666667 53.9188791,0.455 C53.8086001,0.429312715 53.6954995,0.417553169 53.5822571,0.42 C53.4883161,0.42 53.4335171,0.42 53.4335171,0.326666667 C53.4335171,0.233333333 53.5078871,0.252777778 53.6566271,0.252777778 C54.0128201,0.252777778 54.5999515,0.28 54.8661177,0.28 C55.1322839,0.28 55.6489595,0.252777778 56.0051525,0.252777778 C56.126493,0.252777778 56.200863,0.252777778 56.200863,0.326666667 C56.200863,0.400555556 56.1460641,0.42 56.052123,0.42 C55.9588204,0.420158778 55.8657516,0.429275222 55.7742142,0.447222222 C55.5197906,0.493888889 55.4454206,0.649444444 55.4297638,0.976111111 C55.414107,1.30277778 55.4101927,1.53222222 55.4101927,2.92055556 L55.4101927,4.55388889 C55.4101927,5.44833333 55.4101927,6.18333333 55.4454206,6.58 C55.4767343,6.83277778 55.5393616,6.99611111 55.8368415,7.035 C55.9937947,7.05675597 56.1519952,7.06844683 56.3104608,7.07 C56.4122303,7.07 56.4592008,7.10111111 56.4592008,7.14388889 C56.4592008,7.18666667 56.3848308,7.23722222 56.2830614,7.23722222 C55.6685305,7.23722222 55.0813992,7.21 54.8269756,7.21 C54.572552,7.21 54.0441338,7.23722222 53.6527129,7.23722222 C53.5313724,7.23722222 53.468745,7.21 53.468745,7.14388889 C53.468745,7.07777778 53.5039729,7.07 53.617485,7.07 C53.7306496,7.07073419 53.8435472,7.05899576 53.954107,7.035 C54.1380748,6.99611111 54.1928737,6.84055556 54.2241874,6.57222222 C54.2711579,6.18333333 54.2711579,5.44833333 54.2711579,4.55388889 L54.2555011,2.92055556 Z" id="Shape"></path>
                <path d="M61.5594153,4.35555556 C61.6063858,4.35555556 61.6142142,4.33222222 61.6063858,4.30111111 L60.7648308,2.01444444 C60.7648308,1.97555556 60.7648308,1.93277778 60.7217745,1.93277778 C60.6787182,1.93277778 60.674804,1.97555556 60.6630614,2.01444444 L59.8058496,4.29333333 C59.8058496,4.33222222 59.8058496,4.35555556 59.8449917,4.35555556 L61.5594153,4.35555556 Z M59.6571096,4.82222222 C59.6101391,4.82222222 59.5944823,4.82222222 59.5749112,4.89611111 L59.0699783,6.20666667 C58.9926583,6.38583327 58.945071,6.57626423 58.9290667,6.77055556 C58.9290667,6.93777778 59.0151793,7.05833333 59.3204877,7.05833333 L59.457485,7.05833333 C59.570997,7.05833333 59.5983965,7.05833333 59.5983965,7.13222222 C59.5983965,7.20611111 59.5435976,7.22555556 59.4418281,7.22555556 C59.1443482,7.22555556 58.7411847,7.19833333 58.4515332,7.19833333 C58.3497638,7.19833333 57.8370024,7.22555556 57.3516405,7.22555556 C57.2303,7.22555556 57.1755011,7.20611111 57.1755011,7.13222222 C57.1755011,7.05833333 57.2107289,7.05833333 57.2890131,7.05833333 C57.3672973,7.05833333 57.5003804,7.05833333 57.5747504,7.05833333 C58.0053134,7 58.1814528,6.66944444 58.3575922,6.22222222 L60.7061177,0.388888889 C60.8196297,0.120555556 60.8744287,0 60.9683697,0 C61.0623107,0 61.1092812,0.0816666667 61.2032222,0.295555556 C61.4263322,0.801111111 62.9176458,4.57333333 63.5126056,5.98888889 C63.8687986,6.82111111 64.1388791,6.95333333 64.3345895,7 C64.4636512,7.02396995 64.594715,7.03568939 64.7260104,7.035 C64.8003804,7.035 64.8473509,7.035 64.8473509,7.10888889 C64.8473509,7.18277778 64.7651525,7.20222222 64.4167879,7.20222222 C64.0684233,7.20222222 63.4030078,7.20222222 62.6553938,7.18277778 C62.4870828,7.18277778 62.377485,7.18277778 62.377485,7.10888889 C62.377485,7.035 62.4127129,7.035 62.5066539,7.02722222 C62.5481612,7.01213406 62.5810491,6.97991291 62.5968146,6.9388892 C62.6125802,6.89786549 62.6096758,6.85206659 62.5888523,6.81333333 L61.8451525,4.84944444 C61.8324459,4.80934853 61.7933513,4.78345406 61.7512115,4.78722222 L59.6571096,4.82222222 Z" id="Shape"></path>
                <path d="M69.6151793,3.25555556 C69.6151793,1.84777778 69.6151793,1.58722222 69.5956083,1.31111111 C69.5760373,1.035 69.5016673,0.848333333 69.2041874,0.782222222 C69.0838011,0.763266842 68.9620517,0.754162193 68.8401659,0.755 C68.7383965,0.755 68.6835976,0.755 68.6835976,0.673333333 C68.6835976,0.591666667 68.7462249,0.587777778 68.8871364,0.587777778 C69.3803268,0.587777778 69.9674582,0.615 70.245367,0.615 C70.5232759,0.615 71.0595225,0.587777778 71.3922303,0.587777778 C71.5331418,0.587777778 71.5996834,0.587777778 71.5996834,0.673333333 C71.5996834,0.758888889 71.5448844,0.755 71.4509434,0.755 C71.3603205,0.756748681 71.269993,0.765853061 71.180863,0.782222222 C70.9303536,0.828888889 70.8520694,0.984444444 70.8364126,1.31111111 C70.8207557,1.63777778 70.8168415,1.86722222 70.8168415,3.25555556 L70.8168415,4.55055556 C70.8168415,5.89611111 71.086922,6.46 71.5448844,6.82944444 C71.8742751,7.09917078 72.2927452,7.23775847 72.7191472,7.21833333 C73.1977459,7.22391557 73.6596923,7.04395932 74.006922,6.71666667 C74.5196834,6.20722222 74.5470828,5.375 74.5470828,4.41833333 L74.5470828,3.25166667 C74.5470828,1.84388889 74.5470828,1.58333333 74.5470828,1.30722222 C74.5470828,1.03111111 74.4531418,0.844444444 74.1556619,0.778333333 C74.044357,0.760418529 73.9317957,0.75131583 73.8190399,0.751111111 C73.7172705,0.751111111 73.6585574,0.751111111 73.6585574,0.669444444 C73.6585574,0.587777778 73.7250989,0.583888889 73.858182,0.583888889 C74.3318013,0.583888889 74.9189327,0.611111111 74.9267611,0.611111111 C75.0402732,0.611111111 75.6274045,0.583888889 75.991426,0.583888889 C76.1205949,0.583888889 76.1871364,0.583888889 76.1871364,0.669444444 C76.1871364,0.755 76.1323375,0.751111111 76.0188255,0.751111111 C75.9282139,0.753045576 75.8379015,0.762148442 75.748745,0.778333333 C75.4982356,0.825 75.4238657,0.980555556 75.4042946,1.30722222 C75.3847236,1.63388889 75.4042946,1.86333333 75.4042946,3.25166667 L75.4042946,4.24333333 C75.4042946,5.27 75.3025252,6.36277778 74.5196834,7.03166667 C73.9815336,7.48846702 73.2893441,7.72604018 72.5821499,7.69666667 C71.8353964,7.74814776 71.0964117,7.51914262 70.5115332,7.055 C70.0339997,6.63111111 69.6817209,5.94666667 69.6817209,4.60111111 L69.6151793,3.25555556 Z" id="Shape"></path>
                <path d="M78.4378067,6.31222222 C78.4573777,7.03555556 78.5787182,7.27277778 78.762686,7.33888889 C78.919836,7.3867431 79.0837334,7.40906756 79.248048,7.405 C79.3498174,7.405 79.4085305,7.405 79.4085305,7.47888889 C79.4085305,7.55277778 79.3224179,7.57222222 79.193249,7.57222222 C78.5865466,7.57222222 78.2146968,7.545 78.0189863,7.545 C77.9328737,7.545 77.4944823,7.57222222 77.0091204,7.57222222 C76.8877799,7.57222222 76.8055815,7.57222222 76.8055815,7.47888889 C76.8055815,7.38555556 76.8642946,7.405 76.9543214,7.405 C77.0953148,7.40634379 77.2359507,7.39067356 77.3731418,7.35833333 C77.6158228,7.28444444 77.6549649,7.01611111 77.6627933,6.19166667 L77.7489059,0.708333333 C77.7489059,0.521666667 77.7763053,0.393333333 77.8663322,0.393333333 C77.956359,0.393333333 78.0542142,0.513888889 78.2146968,0.677222222 C78.3751793,0.840555556 79.7412383,2.31055556 81.1033831,3.65222222 C81.737485,4.28222222 82.9939461,5.59666667 83.1544287,5.76388889 L83.2013992,5.76388889 L83.1074582,1.60666667 C83.1074582,1.03888889 83.0135171,0.863888889 82.7904072,0.770555556 C82.6299688,0.726474916 82.4634814,0.708095989 82.2972169,0.716111111 C82.1837048,0.716111111 82.1484769,0.688888889 82.1484769,0.634444444 C82.1484769,0.58 82.2463322,0.548888889 82.3872437,0.548888889 C82.8726056,0.548888889 83.3227397,0.576111111 83.5184501,0.576111111 C83.6202196,0.576111111 83.9724984,0.548888889 84.4304608,0.548888889 C84.5518013,0.548888889 84.6457423,0.548888889 84.6457423,0.634444444 C84.6457423,0.72 84.5870292,0.716111111 84.4774314,0.716111111 C84.3826852,0.712536956 84.2878872,0.721693807 84.1956083,0.743333333 C83.9372705,0.817222222 83.8629005,1.01166667 83.8511579,1.52111111 L83.7493885,7.35444444 C83.7493885,7.55666667 83.7141606,7.64222222 83.628048,7.64222222 C83.5419354,7.64222222 83.4127665,7.54111111 83.310997,7.44 C82.7238657,6.88388889 81.5300319,5.67055556 80.5710507,4.71777778 C79.6120694,3.765 78.5200051,2.55944444 78.3516941,2.38444444 L78.3242946,2.38444444 L78.4378067,6.31222222 Z" id="Shape"></path>
                <path d="M86.9081552,3.25555556 C86.9081552,1.84777778 86.9081552,1.58722222 86.8885842,1.31111111 C86.8690131,1.035 86.7750721,0.840555556 86.5715332,0.793888889 C86.4614222,0.766892595 86.3483192,0.753826169 86.2349112,0.755 C86.1409702,0.755 86.0861713,0.755 86.0861713,0.661666667 C86.0861713,0.568333333 86.1605413,0.587777778 86.3092812,0.587777778 C86.6654742,0.587777778 87.2526056,0.615 87.522686,0.615 C87.7927665,0.615 88.3055279,0.587777778 88.6617209,0.587777778 C88.7791472,0.587777778 88.8535171,0.587777778 88.8535171,0.661666667 C88.8535171,0.735555556 88.7987182,0.755 88.7047772,0.755 C88.6116067,0.757487809 88.518734,0.766585035 88.4268684,0.782222222 C88.176359,0.828888889 88.101989,0.984444444 88.0824179,1.31111111 C88.0628469,1.63777778 88.0628469,1.86722222 88.0628469,3.25555556 L88.0628469,4.87333333 C88.0628469,5.77166667 88.0628469,6.50277778 88.101989,6.89944444 C88.1293885,7.15222222 88.19593,7.31555556 88.4934099,7.35444444 C88.650293,7.37737494 88.8084857,7.39036415 88.9670292,7.39333333 C89.0687986,7.39333333 89.1157692,7.42055556 89.1157692,7.46722222 C89.1157692,7.51388889 89.0413992,7.56055556 88.9396297,7.56055556 C88.3250989,7.56055556 87.7379675,7.52944444 87.4874582,7.52944444 C87.2369488,7.52944444 86.7046163,7.56055556 86.3131954,7.56055556 C86.1879407,7.56055556 86.1253134,7.52944444 86.1253134,7.46722222 C86.1253134,7.42055556 86.1605413,7.39333333 86.2740533,7.39333333 C86.3874079,7.39353919 86.5003927,7.38048641 86.6106753,7.35444444 C86.7946431,7.31555556 86.8533563,7.16 86.8807557,6.89166667 C86.9277263,6.50277778 86.9277263,5.77166667 86.9277263,4.87333333 L86.9081552,3.25555556 Z" id="Shape"></path>
                <path d="M90.9202196,1.47833333 C90.7049381,0.968888889 90.5287986,0.867777778 90.2117477,0.774444444 C90.0926807,0.74549607 89.9702658,0.732418329 89.8477263,0.735555556 C89.7655279,0.735555556 89.7381284,0.708333333 89.7381284,0.65 C89.7381284,0.591666667 89.8398978,0.568333333 89.9808094,0.568333333 C90.4739997,0.568333333 91.0063322,0.595555556 91.3312115,0.595555556 C91.5621499,0.595555556 92.0122839,0.568333333 92.4780748,0.568333333 C92.5876726,0.568333333 92.6894421,0.568333333 92.6894421,0.65 C92.6894421,0.731666667 92.6346431,0.735555556 92.5524448,0.735555556 C92.4272113,0.72184381 92.3006758,0.744824327 92.1884233,0.801666667 C92.1247352,0.845442711 92.0890241,0.91935953 92.0944823,0.996111111 C92.1325243,1.24213886 92.2049855,1.48167764 92.3097638,1.70777778 L93.9145895,5.91166667 L93.9498174,5.91166667 C94.3412383,4.89277778 95.5624716,1.91 95.7855815,1.29944444 C95.8322378,1.19058497 95.8612999,1.07508859 95.8716941,0.957222222 C95.8742809,0.878754557 95.8250698,0.807781146 95.7503536,0.782222222 C95.6233268,0.745503025 95.4910971,0.7297381 95.3589327,0.735555556 C95.2767343,0.735555556 95.2023643,0.735555556 95.2023643,0.661666667 C95.2023643,0.587777778 95.2845627,0.568333333 95.4607021,0.568333333 C95.9304072,0.568333333 96.3218281,0.595555556 96.4431686,0.595555556 C96.5645091,0.595555556 97.0381284,0.568333333 97.3160373,0.568333333 C97.4373777,0.568333333 97.5117477,0.568333333 97.5117477,0.65 C97.5117477,0.731666667 97.4569488,0.735555556 97.3630078,0.735555556 C97.2036242,0.726267457 97.0451927,0.765619128 96.9089595,0.848333333 C96.787619,0.93 96.6467075,1.08555556 96.3961981,1.68055556 C96.0321767,2.55166667 95.7816673,3.04944444 95.2767343,4.18888889 C94.6817745,5.54222222 94.2433831,6.55333333 94.03593,7.01222222 C93.793249,7.55277778 93.7384501,7.70055556 93.6092812,7.70055556 C93.4801123,7.70055556 93.4292276,7.56833333 93.2530882,7.13666667 L90.9202196,1.47833333 Z" id="Shape"></path>
                <path d="M99.277056,3.25555556 C99.277056,1.84777778 99.277056,1.58722222 99.257485,1.31111111 C99.2379139,1.035 99.163544,0.848333333 98.8660641,0.782222222 C98.7469947,0.763251437 98.6265444,0.75414602 98.5059568,0.755 C98.4002732,0.755 98.3454742,0.755 98.3454742,0.673333333 C98.3454742,0.591666667 98.4120158,0.587777778 98.5529273,0.587777778 C99.0461177,0.587777778 99.633249,0.615 99.8955011,0.615 C100.157753,0.615 102.048316,0.615 102.224455,0.615 C102.355926,0.602858889 102.486606,0.583383714 102.615876,0.556666667 C102.664511,0.541340073 102.714229,0.529640917 102.764616,0.521666667 C102.811587,0.521666667 102.823329,0.556666667 102.823329,0.603333333 C102.823329,0.65 102.776359,0.782222222 102.745045,1.20611111 C102.745045,1.29944444 102.717646,1.70777778 102.701989,1.82055556 C102.701989,1.86333333 102.67459,1.92166667 102.608048,1.92166667 C102.541506,1.92166667 102.521935,1.875 102.521935,1.78944444 C102.523218,1.67692686 102.504672,1.56505427 102.467136,1.45888889 C102.400595,1.29166667 102.310568,1.17888889 101.844777,1.12444444 C101.684295,1.105 100.705742,1.08555556 100.521775,1.08555556 C100.47089,1.08555556 100.451319,1.11666667 100.451319,1.17888889 L100.451319,3.51222222 C100.451319,3.57444444 100.451319,3.61333333 100.521775,3.61333333 C100.725313,3.61333333 101.797807,3.61333333 102.013088,3.61333333 C102.174028,3.62223938 102.332704,3.57245546 102.459308,3.47333333 C102.521935,3.39944444 102.561077,3.35277778 102.608048,3.35277778 C102.655018,3.35277778 102.67459,3.35277778 102.67459,3.43055556 C102.67459,3.50833333 102.627619,3.63277778 102.596305,4.10333333 C102.596305,4.29 102.561077,4.65944444 102.561077,4.72555556 C102.561077,4.79166667 102.561077,4.90055556 102.478879,4.90055556 C102.396681,4.90055556 102.392766,4.86555556 102.392766,4.81888889 C102.38933,4.7066976 102.377555,4.59491187 102.357539,4.48444444 C102.310568,4.29777778 102.177485,4.16166667 101.833035,4.12277778 C101.656895,4.12277778 100.733142,4.09555556 100.510032,4.09555556 C100.463061,4.09555556 100.451319,4.13444444 100.451319,4.18888889 L100.451319,4.87333333 C100.451319,5.18833333 100.451319,6.04 100.451319,6.30833333 C100.47089,6.94611111 100.623544,7.08611111 101.574697,7.08611111 C101.870226,7.10407971 102.166491,7.06580128 102.447565,6.97333333 C102.690246,6.86444444 102.803758,6.67 102.866386,6.28888889 C102.885957,6.18777778 102.905528,6.15277778 102.972069,6.15277778 C103.038611,6.15277778 103.046439,6.22666667 103.046439,6.31611111 C103.030795,6.66206616 102.990244,7.0064648 102.925099,7.34666667 C102.858557,7.58388889 102.776359,7.58388889 102.420166,7.58388889 C101.014965,7.58388889 100.388691,7.52944444 99.8367879,7.52944444 C99.6254206,7.52944444 99.0539461,7.56055556 98.6625252,7.56055556 C98.5411847,7.56055556 98.4746431,7.52944444 98.4746431,7.46722222 C98.4746431,7.405 98.509871,7.39333333 98.6233831,7.39333333 C98.7367233,7.39329155 98.8496793,7.38024209 98.9600051,7.35444444 C99.1439729,7.31555556 99.1909434,7.11333333 99.2300855,6.845 C99.277056,6.45611111 99.277056,5.725 99.277056,4.87333333 L99.277056,3.25555556 Z" id="Shape"></path>
                <path d="M106.342203,3.98666667 C106.342203,4.08777778 106.342203,4.12666667 106.428316,4.15388889 C106.657585,4.21775286 106.894773,4.24917337 107.132874,4.24722222 C107.366988,4.27949887 107.604722,4.22253396 107.798289,4.08777778 C108.195341,3.73969073 108.399324,3.22289822 108.346279,2.69944444 C108.346279,1.385 107.469496,1.00388889 106.921506,1.00388889 C106.756323,0.99798644 106.590978,1.00972034 106.428316,1.03888889 C106.361775,1.03888889 106.342203,1.09722222 106.342203,1.17111111 L106.342203,3.98666667 Z M105.242311,3.25555556 C105.242311,1.84777778 105.242311,1.58722222 105.22274,1.31111111 C105.203169,1.035 105.132713,0.848333333 104.831319,0.782222222 C104.710932,0.763266842 104.589183,0.754162193 104.467297,0.755 C104.365528,0.755 104.310729,0.755 104.310729,0.673333333 C104.310729,0.591666667 104.373356,0.587777778 104.514268,0.587777778 C105.007458,0.587777778 105.598504,0.615 105.7903,0.615 C106.107351,0.615 106.815823,0.587777778 107.105474,0.587777778 C107.703336,0.542790971 108.300927,0.678344766 108.819898,0.976666667 C109.218046,1.28014304 109.452216,1.74976298 109.454,2.24833333 C109.454,2.93277778 109.164348,3.56277778 108.224938,4.32111111 C109.05475,5.35944444 109.696681,6.18388889 110.248584,6.75944444 C110.561867,7.16164632 111.040319,7.40289351 111.552016,7.41666667 C111.626386,7.41666667 111.661614,7.44388889 111.661614,7.49055556 C111.661614,7.53722222 111.598986,7.58388889 111.489388,7.58388889 L110.600863,7.58388889 C110.257923,7.61669975 109.912524,7.55479547 109.60274,7.405 C109.211319,7.19111111 108.847297,6.75944444 108.326707,6.04388889 C107.954858,5.53444444 107.543866,4.90444444 107.402954,4.76833333 C107.361934,4.71913173 107.298437,4.69419057 107.234643,4.70222222 L106.424402,4.70222222 C106.377431,4.70222222 106.350032,4.70222222 106.350032,4.77611111 L106.350032,4.87333333 C106.350032,5.73277778 106.350032,6.46388889 106.397002,6.85277778 C106.424402,7.12111111 106.483115,7.32333333 106.761024,7.36222222 C106.911533,7.3835186 107.063115,7.39650152 107.215072,7.40111111 C107.293356,7.40111111 107.328584,7.42833333 107.328584,7.475 C107.328584,7.52166667 107.265957,7.56833333 107.140702,7.56833333 C106.604455,7.56833333 105.91164,7.53722222 105.774643,7.53722222 C105.637646,7.53722222 104.991801,7.56833333 104.635608,7.56833333 C104.514268,7.56833333 104.45164,7.53722222 104.45164,7.475 C104.45164,7.41277778 104.486868,7.40111111 104.596466,7.40111111 C104.709821,7.40131697 104.822806,7.38826418 104.933088,7.36222222 C105.12097,7.32333333 105.167941,7.12111111 105.203169,6.85277778 C105.250139,6.46388889 105.250139,5.73277778 105.250139,4.88111111 L105.242311,3.25555556 Z" id="Shape"></path>
                <path d="M112.573624,7.45944444 C112.42097,7.39333333 112.393571,7.34666667 112.393571,7.14444444 C112.393571,6.635 112.432713,6.07888889 112.440541,5.93111111 C112.44837,5.78333333 112.479683,5.69 112.554053,5.69 C112.628423,5.69 112.647994,5.77166667 112.647994,5.84944444 C112.655828,6.00905621 112.683436,6.16709989 112.730193,6.32 C112.892987,6.90883783 113.451918,7.30130456 114.064938,7.25722222 C114.373222,7.28850921 114.680978,7.19321365 114.916783,6.9934514 C115.152588,6.79368915 115.295941,6.50682898 115.313571,6.19944444 C115.313571,5.74833333 115.172659,5.30888889 114.397646,4.71777778 L113.970997,4.38333333 C112.945474,3.60555556 112.589281,2.94055556 112.589281,2.19 C112.589281,1.17111111 113.446493,0.44 114.742096,0.44 C115.161194,0.434781739 115.57893,0.488461132 115.982901,0.599444444 C116.069013,0.599444444 116.115984,0.642222222 116.115984,0.708333333 C116.115984,0.774444444 116.076842,1.09722222 116.076842,1.82055556 C116.076842,2.02277778 116.049442,2.09666667 115.975072,2.09666667 C115.900702,2.09666667 115.881131,2.04222222 115.881131,1.92944444 C115.862962,1.70652038 115.778489,1.49399732 115.63845,1.31888889 C115.397213,1.00798399 115.014772,0.838460369 114.620756,0.867777778 C113.931855,0.867777778 113.513035,1.25666667 113.513035,1.82055556 C113.513035,2.24444444 113.728316,2.57111111 114.499415,3.15444444 L114.761667,3.34888889 C115.881131,4.20833333 116.292123,4.83055556 116.292123,5.70944444 C116.302188,6.36123643 115.969996,6.9712254 115.41534,7.31944444 C114.969892,7.59071864 114.454024,7.72595097 113.931855,7.70833333 C113.466915,7.72611925 113.003597,7.64387177 112.573624,7.46722222" id="Shape"></path>
                <path d="M118.503651,3.25555556 C118.503651,1.84777778 118.503651,1.58722222 118.48408,1.31111111 C118.464509,1.035 118.374482,0.840555556 118.167029,0.793888889 C118.058211,0.767095028 117.946428,0.754029179 117.834321,0.755 C117.74038,0.755 117.681667,0.755 117.681667,0.661666667 C117.681667,0.568333333 117.756037,0.587777778 117.908691,0.587777778 C118.26097,0.587777778 118.848102,0.615 119.118182,0.615 C119.388262,0.615 119.901024,0.587777778 120.257217,0.587777778 C120.378557,0.587777778 120.452927,0.587777778 120.452927,0.661666667 C120.452927,0.735555556 120.394214,0.755 120.304187,0.755 C120.209708,0.757301631 120.115521,0.76639951 120.022364,0.782222222 C119.771855,0.828888889 119.697485,0.984444444 119.677914,1.31111111 C119.658343,1.63777778 119.658343,1.86722222 119.658343,3.25555556 L119.658343,4.87333333 C119.658343,5.77166667 119.658343,6.50277778 119.697485,6.89944444 C119.724884,7.15222222 119.791426,7.31555556 120.069335,7.35444444 C120.226237,7.37721059 120.384419,7.39019893 120.542954,7.39333333 C120.648638,7.39333333 120.695608,7.42055556 120.695608,7.46722222 C120.695608,7.51388889 120.621238,7.56055556 120.515555,7.56055556 C119.901024,7.56055556 119.313892,7.52944444 119.063383,7.52944444 C118.812874,7.52944444 118.26097,7.56055556 117.88912,7.56055556 C117.76778,7.56055556 117.701238,7.52944444 117.701238,7.46722222 C117.701238,7.405 117.74038,7.39333333 117.849978,7.39333333 C117.963333,7.39353919 118.076318,7.38048641 118.1866,7.35444444 C118.374482,7.31555556 118.429281,7.16 118.456681,6.89166667 C118.503651,6.50277778 118.503651,5.77166667 118.503651,4.87333333 L118.503651,3.25555556 Z" id="Shape"></path>
                <path d="M124.061828,4.27444444 C124.061828,5.25444444 124.061828,5.97 124.061828,6.145 C124.054137,6.38403636 124.089939,6.62248908 124.167512,6.84888889 C124.288852,7.02388889 124.64896,7.23777778 125.388745,7.23777778 C126.162965,7.30111937 126.931409,7.061051 127.529817,6.56888889 C128.128691,6.06333333 128.312659,5.21944444 128.312659,4.26666667 C128.35034,3.40012489 128.027611,2.55633346 127.42022,1.93333333 C126.693328,1.29137541 125.741614,0.958963664 124.7703,1.00777778 C124.567353,1.00414222 124.364774,1.02636021 124.167512,1.07388889 C124.089009,1.09805928 124.040532,1.17611562 124.054,1.25666667 C124.054,1.57166667 124.054,2.38055556 124.054,3.11166667 L124.061828,4.27444444 Z M122.887565,3.25555556 C122.887565,1.84777778 122.887565,1.58722222 122.867994,1.31111111 C122.848423,1.035 122.774053,0.848333333 122.476573,0.782222222 C122.356187,0.763266842 122.234438,0.754162193 122.112552,0.755 C122.010783,0.755 121.952069,0.755 121.952069,0.673333333 C121.952069,0.591666667 122.018611,0.587777778 122.159523,0.587777778 C122.652713,0.587777778 123.239844,0.615 123.502096,0.615 C123.764348,0.615 124.378879,0.587777778 124.938611,0.587777778 C126.112874,0.587777778 127.658986,0.587777778 128.672766,1.64555556 C129.272206,2.27435167 129.597208,3.1130521 129.576949,3.97888889 C129.59056,4.93914051 129.226891,5.86684515 128.563169,6.565 C128.132606,7.00055556 127.165796,7.65777778 125.431801,7.65777778 C124.750729,7.65777778 123.913088,7.545 123.447297,7.545 C123.232016,7.545 122.644884,7.57611111 122.273035,7.57611111 C122.151694,7.57611111 122.085153,7.545 122.085153,7.48277778 C122.085153,7.42055556 122.124295,7.40888889 122.233892,7.40888889 C122.347247,7.40909475 122.460232,7.39604196 122.570514,7.37 C122.758397,7.33111111 122.805367,7.12888889 122.840595,6.86055556 C122.887565,6.47166667 122.887565,5.74055556 122.887565,4.88888889 L122.887565,3.25555556 Z" id="Shape"></path>
                <path d="M133.886493,4.69055556 C133.933464,4.69055556 133.941292,4.66333333 133.933464,4.63611111 L133.095823,2.34555556 C133.095823,2.31055556 133.076252,2.26388889 133.048852,2.26388889 C133.021453,2.26388889 133.001882,2.31055556 132.994053,2.34555556 L132.132927,4.62444444 C132.132927,4.66333333 132.132927,4.69055556 132.172069,4.69055556 L133.886493,4.69055556 Z M131.984187,5.15333333 C131.941131,5.15333333 131.92156,5.15333333 131.901989,5.22722222 L131.397056,6.55333333 C131.321659,6.73291424 131.275419,6.92324334 131.260059,7.11722222 C131.260059,7.28444444 131.342257,7.405 131.631909,7.405 L131.77282,7.405 C131.882418,7.405 131.909817,7.405 131.909817,7.47888889 C131.909817,7.55277778 131.855018,7.57222222 131.753249,7.57222222 C131.455769,7.57222222 131.052606,7.545 130.766868,7.545 C130.661185,7.545 130.148423,7.57222222 129.663061,7.57222222 C129.541721,7.57222222 129.486922,7.57222222 129.486922,7.47888889 C129.486922,7.38555556 129.526064,7.405 129.600434,7.405 C129.674804,7.405 129.815716,7.405 129.890086,7.38555556 C130.316734,7.32722222 130.492874,7.01611111 130.672927,6.55333333 L133.021453,0.72 C133.131051,0.451666667 133.189764,0.331111111 133.279791,0.331111111 C133.369817,0.331111111 133.420702,0.412777778 133.514643,0.626666667 C133.737753,1.13611111 135.229067,4.90444444 135.827941,6.32 C136.18022,7.15611111 136.4503,7.28444444 136.64601,7.33111111 C136.775,7.35602386 136.906031,7.36904216 137.037431,7.37 C137.111801,7.37 137.158772,7.37 137.158772,7.44388889 C137.158772,7.51777778 137.076573,7.53722222 136.732123,7.53722222 C136.387673,7.53722222 135.714429,7.53722222 134.970729,7.53722222 C134.802418,7.53722222 134.688906,7.53722222 134.688906,7.46333333 C134.688906,7.38944444 134.728048,7.38944444 134.818075,7.37777778 C134.860045,7.36444771 134.893906,7.33331555 134.910531,7.29277351 C134.927156,7.25223146 134.924832,7.20645273 134.904187,7.16777778 L134.156573,5.22333333 C134.14568,5.18318425 134.108375,5.15578907 134.066547,5.15722222 L131.984187,5.15333333 Z" id="Shape"></path>
                <path d="M139.992659,4.27444444 C139.992659,5.25444444 139.992659,5.97 140.01223,6.145 C140.003536,6.38378705 140.038005,6.62218847 140.114,6.84888889 C140.23534,7.02388889 140.599362,7.23777778 141.335233,7.23777778 C142.11072,7.30173799 142.88061,7.06165678 143.48022,6.56888889 C144.075179,6.06333333 144.263061,5.21944444 144.263061,4.26666667 C144.30158,3.39925423 143.977131,2.5546682 143.366707,1.93333333 C142.641235,1.2916084 141.690808,0.959155373 140.720702,1.00777778 C140.516454,1.00393778 140.312555,1.0261563 140.114,1.07388889 C140.036579,1.09943287 139.988742,1.17646073 140.000488,1.25666667 C140.000488,1.57166667 140.000488,2.38055556 140.000488,3.11166667 L139.992659,4.27444444 Z M138.818397,3.25555556 C138.818397,1.84777778 138.818397,1.58722222 138.798825,1.31111111 C138.779254,1.035 138.708799,0.848333333 138.407405,0.782222222 C138.287018,0.763266842 138.165269,0.754162193 138.043383,0.755 C137.941614,0.755 137.886815,0.755 137.886815,0.673333333 C137.886815,0.591666667 137.949442,0.587777778 138.090354,0.587777778 C138.583544,0.587777778 139.17459,0.615 139.432927,0.615 C139.691265,0.615 140.30971,0.587777778 140.869442,0.587777778 C142.043705,0.587777778 143.589817,0.587777778 144.607512,1.64555556 C145.205492,2.27526576 145.530254,3.11334655 145.511694,3.97888889 C145.525918,4.93998316 145.160579,5.86836236 144.494,6.565 C144.067351,7.00055556 143.096627,7.65777778 141.362632,7.65777778 C140.68156,7.65777778 139.840005,7.545 139.374214,7.545 C139.162847,7.545 138.591372,7.57611111 138.199951,7.57611111 C138.078611,7.57611111 138.015984,7.545 138.015984,7.48277778 C138.015984,7.42055556 138.051212,7.40888889 138.160809,7.40888889 C138.274164,7.40909475 138.387149,7.39604196 138.497431,7.37 C138.685313,7.33111111 138.732284,7.12888889 138.771426,6.86055556 C138.814482,6.47166667 138.814482,5.74055556 138.814482,4.88888889 L138.818397,3.25555556 Z" id="Shape"></path>
                <path d="M1.1553402,21.04 C0.428865893,20.3576292 0.0120618844,19.4116641 0.000257672011,18.4184615 C-0.0115465404,17.425259 0.382658799,16.4697793 1.09271285,15.7705556 C1.76204261,15.1561111 2.6583965,14.7866667 4.03619811,14.7866667 C4.48801556,14.7851736 4.93934281,14.8163671 5.38660025,14.88 C5.74279328,14.9266667 6.04027318,15.0083333 6.31818202,15.0394444 C6.42386567,15.0394444 6.45909355,15.0938889 6.45909355,15.1483333 C6.45909355,15.2027778 6.43169409,15.335 6.41212304,15.6577778 C6.392552,15.9805556 6.41212304,16.4744444 6.38472358,16.6572222 C6.35732411,16.84 6.35732411,16.8711111 6.27512572,16.8711111 C6.19292733,16.8711111 6.1811847,16.7972222 6.1811847,16.665 C6.16600884,16.3470522 6.03689505,16.0449768 5.81716326,15.8133333 C5.27807831,15.400386 4.60583134,15.1971126 3.92660025,15.2416667 C3.28921778,15.196196 2.65939381,15.4015201 2.17303457,15.8133333 C1.49196218,16.4355556 1.31582277,17.3144444 1.31582277,18.2127778 C1.31582277,20.4177778 2.99893269,21.5105556 4.25147961,21.5105556 C5.08129194,21.5105556 5.58231071,21.4172222 5.95807478,20.9933333 C6.10674234,20.8148492 6.21488788,20.6065897 6.27512572,20.3827778 C6.30252519,20.2311111 6.31818202,20.1961111 6.392552,20.1961111 C6.46692197,20.1961111 6.4786646,20.2622222 6.4786646,20.3361111 C6.43858371,20.7498058 6.37058442,21.1603592 6.27512572,21.565 C6.25678389,21.6952008 6.16079248,21.8013389 6.03244476,21.8333333 C5.4873876,21.9913052 4.92078829,22.0634763 4.35324905,22.0472222 C3.07721688,22.0472222 2.00472358,21.7711111 1.1553402,21.04" id="Shape"></path>
                <path d="M11.4849381,19.0216667 C11.5319086,19.0216667 11.539737,18.9944444 11.5319086,18.9672222 L10.6903536,16.6805556 C10.6903536,16.6416667 10.6903536,16.595 10.6433831,16.595 C10.5964126,16.595 10.5964126,16.6416667 10.5885842,16.6805556 L9.73137237,18.9555556 C9.73137237,18.9944444 9.73137237,19.0216667 9.77051446,19.0216667 L11.4849381,19.0216667 Z M9.58263243,19.4844444 C9.53566192,19.4844444 9.51609087,19.5038889 9.50043403,19.5583333 L8.99550106,20.8844444 C8.91737278,21.0633402 8.86975189,21.2539058 8.85458953,21.4483333 C8.85458953,21.6155556 8.93678792,21.7361111 9.24601044,21.7361111 L9.38692197,21.7361111 C9.50043403,21.7361111 9.5278335,21.7555556 9.5278335,21.81 C9.5278335,21.8644444 9.47303457,21.9033333 9.37126513,21.9033333 C9.06987103,21.9033333 8.6706217,21.8761111 8.38097023,21.8761111 C8.27920079,21.8761111 7.7664394,21.9033333 7.28107747,21.9033333 C7.15973698,21.9033333 7.10493806,21.8838889 7.10493806,21.81 C7.10493806,21.7361111 7.14016594,21.7361111 7.21453591,21.7361111 C7.3109859,21.7423009 7.4077374,21.7423009 7.50418739,21.7361111 C7.93475039,21.6816667 8.1108898,21.3472222 8.28702921,20.9038889 L10.6355547,15.0705556 C10.7490667,14.8022222 10.8038657,14.7011111 10.8978067,14.7011111 C10.9917477,14.7011111 11.0387182,14.7827778 11.1326592,14.9966667 C11.3518549,15.5061111 12.8470828,19.2744444 13.4420426,20.6938889 C13.7982356,21.5261111 14.0683161,21.6583333 14.2640265,21.7011111 C14.3926644,21.7283314 14.5239316,21.7413732 14.6554474,21.74 C14.7298174,21.74 14.7767879,21.74 14.7767879,21.8138889 C14.7767879,21.8877778 14.6906753,21.9072222 14.3462249,21.9072222 C14.0017745,21.9072222 13.3285305,21.9072222 12.5848308,21.8877778 C12.4165198,21.8877778 12.306922,21.8877778 12.306922,21.8138889 C12.306922,21.74 12.3421499,21.74 12.4360909,21.7322222 C12.4775982,21.7171341 12.5104861,21.6849129 12.5262516,21.6438892 C12.5420172,21.6028655 12.5391128,21.5570666 12.5182893,21.5183333 L11.7745895,19.5544444 C11.7634011,19.5127963 11.7239054,19.4850012 11.6806485,19.4883333 L9.58263243,19.4844444 Z" id="Shape"></path>
                <path d="M17.0509434,15.4205556 L15.6613992,15.4555556 C15.1212383,15.475 14.8785574,15.5216667 14.7572169,15.7238889 C14.685757,15.8225827 14.6327252,15.9332292 14.6006485,16.0505556 C14.6006485,16.1244444 14.553678,16.1594444 14.4949649,16.1594444 C14.4362517,16.1594444 14.4127665,16.1166667 14.4127665,16.0116667 C14.4127665,15.9066667 14.5889059,15.02 14.6084769,14.9461111 C14.628048,14.8722222 14.6632759,14.7711111 14.7180748,14.7711111 C14.8447254,14.8207421 14.9757694,14.858499 15.1094957,14.8838889 C15.3795761,14.9111111 15.7318549,14.9305556 16.0410775,14.9305556 L19.7321767,14.9305556 C20.0335142,14.9324389 20.3341337,14.9011367 20.6285305,14.8372222 C20.6911579,14.8372222 20.7029005,14.8916667 20.7029005,15.0316667 C20.7029005,15.1716667 20.6715868,15.8638889 20.6715868,16.105 C20.6715868,16.1983333 20.6441874,16.2527778 20.5893885,16.2527778 C20.5345895,16.2527778 20.4954474,16.2061111 20.487619,16.07 L20.487619,15.965 C20.468048,15.7238889 20.2136244,15.4672222 19.3877263,15.4477778 L18.2134635,15.4205556 L18.2134635,19.2161111 C18.2134635,20.0677778 18.2134635,20.7988889 18.2565198,21.1994444 C18.2878335,21.46 18.3426324,21.6622222 18.6205413,21.7011111 C18.7790213,21.7207897 18.9384038,21.7324714 19.0980748,21.7361111 C19.1998442,21.7361111 19.2468147,21.7633333 19.2468147,21.81 C19.2468147,21.8566667 19.1724448,21.9033333 19.0667611,21.9033333 C18.4522303,21.9033333 17.8650989,21.8761111 17.6067611,21.8761111 C17.3484233,21.8761111 16.8239193,21.9033333 16.4324984,21.9033333 C16.3072437,21.9033333 16.2446163,21.8761111 16.2446163,21.81 C16.2446163,21.7438889 16.2798442,21.7361111 16.3933563,21.7361111 C16.5064425,21.7353537 16.6191844,21.7236314 16.7299783,21.7011111 C16.9139461,21.6622222 16.9726592,21.46 17.0000587,21.1877778 C17.0470292,20.7988889 17.0470292,20.0677778 17.0470292,19.2161111 L17.0509434,15.4205556 Z" id="Shape"></path>
                <path d="M26.8795225,13.4294444 C26.9343214,13.5383333 26.8795225,13.5655556 26.832552,13.5655556 C26.7270517,13.5568084 26.6210013,13.5568084 26.5155011,13.5655556 C25.959822,13.6680039 25.4227963,13.8528462 24.9224179,14.1138889 C24.8727536,14.1434859 24.820319,14.1682312 24.7658496,14.1877778 C24.7356006,14.186127 24.7108777,14.1632015 24.7071364,14.1333333 C24.7071364,14.0944444 24.7462785,14.0594444 24.793249,14.0127778 C25.2709652,13.5967664 25.7714413,13.2072845 26.2923911,12.8461111 C26.3461724,12.8013838 26.4110619,12.7718352 26.4802732,12.7605556 C26.5468147,12.7605556 26.5624716,12.7916667 26.6094421,12.8733333 C26.7098741,13.0535354 26.8000428,13.239198 26.8795225,13.4294444 M27.8385037,18.5783333 C27.8385037,16.5016667 26.6368415,15.2144444 25.0985574,15.2144444 C24.0260641,15.2144444 22.8048308,15.8094444 22.8048308,18.1155556 C22.8048308,20.06 23.8773241,21.5688889 25.6661177,21.5688889 C26.3197906,21.5688889 27.8267611,21.2538889 27.8267611,18.5783333 M21.517056,18.4033333 C21.517056,16.8166667 22.5699783,14.7711111 25.3686378,14.7711111 C27.6897638,14.7711111 29.134107,16.1166667 29.134107,18.2361111 C29.1737275,19.2611587 28.7784933,20.2556659 28.0447067,20.9773119 C27.3109201,21.6989579 26.3059609,22.0814776 25.2746968,22.0316667 C22.6012919,22.0316667 21.517056,20.0405556 21.517056,18.4033333" id="Shape"></path>
                <path d="M32.2928737,19.2161111 C32.2928737,20.4022222 32.2928737,21.04 32.4885842,21.2072222 C32.6842946,21.3744444 32.8800051,21.4133333 33.6158764,21.4133333 C34.112981,21.4133333 34.4730882,21.4133333 34.7079407,21.1527778 C34.835334,20.9910555 34.9188856,20.7995944 34.9506217,20.5966667 C34.9506217,20.515 34.9780212,20.4566667 35.0523911,20.4566667 C35.1267611,20.4566667 35.1267611,20.5033333 35.1267611,20.6161111 C35.1078934,20.9744094 35.0607785,21.3306864 34.9858496,21.6816667 C34.9310507,21.8838889 34.8840801,21.9305556 34.3987182,21.9305556 C33.0561445,21.9305556 32.4416137,21.8761111 31.6861713,21.8761111 C31.474804,21.8761111 30.9033295,21.9033333 30.5119086,21.9033333 C30.3905681,21.9033333 30.3279407,21.8761111 30.3279407,21.81 C30.3279407,21.7438889 30.3631686,21.7361111 30.4766807,21.7361111 C30.5887473,21.7363757 30.7004435,21.72332 30.8093885,21.6972222 C30.9972705,21.6622222 31.044241,21.4561111 31.0833831,21.1877778 C31.1303536,20.7988889 31.1303536,20.0677778 31.1303536,19.2161111 L31.1303536,17.5866667 C31.1303536,16.1788889 31.1303536,15.9183333 31.1107826,15.6227778 C31.0912115,15.3272222 31.0168415,15.16 30.7193616,15.0977778 C30.6192104,15.0753158 30.5167088,15.0648708 30.4140533,15.0666667 C30.3122839,15.0666667 30.257485,15.0666667 30.257485,14.985 C30.257485,14.9033333 30.3201123,14.8994444 30.4610238,14.8994444 C30.8955011,14.8994444 31.4865466,14.9305556 31.737056,14.9305556 C31.9875654,14.9305556 32.6412383,14.8994444 33.0052598,14.8994444 C33.1344287,14.8994444 33.2009702,14.8994444 33.2009702,14.985 C33.2009702,15.0705556 33.1422571,15.0666667 33.0326592,15.0666667 C32.9107007,15.06786 32.7890098,15.0782603 32.6686378,15.0977778 C32.4181284,15.1405556 32.3437584,15.3 32.3241874,15.6227778 C32.3046163,15.9455556 32.3046163,16.1788889 32.3046163,17.5866667 L32.2928737,19.2161111 Z" id="Shape"></path>
                <path d="M37.0564662,17.5866667 C37.0564662,16.1788889 37.0564662,15.9183333 37.0564662,15.6227778 C37.0564662,15.3272222 36.9468684,15.1522222 36.7394153,15.1055556 C36.6293042,15.0785593 36.5162013,15.0654928 36.4027933,15.0666667 C36.3127665,15.0666667 36.2540533,15.0666667 36.2540533,14.9772222 C36.2540533,14.8877778 36.3284233,14.8994444 36.4810775,14.8994444 C36.8333563,14.8994444 37.4204877,14.9305556 37.6905681,14.9305556 C37.9606485,14.9305556 38.4734099,14.8994444 38.8296029,14.8994444 C38.9509434,14.8994444 39.0253134,14.8994444 39.0253134,14.9772222 C39.0253134,15.055 38.9666003,15.0666667 38.8765734,15.0666667 C38.7820941,15.0689683 38.6879066,15.0780662 38.5947504,15.0938889 C38.344241,15.1405556 38.269871,15.3 38.2503,15.6227778 C38.2307289,15.9455556 38.2503,16.1788889 38.2503,17.5866667 L38.2503,19.2161111 C38.2503,20.1144444 38.2503,20.8455556 38.2894421,21.2461111 C38.3168415,21.495 38.3833831,21.6622222 38.6612919,21.6972222 C38.8194881,21.7201507 38.9789828,21.7331394 39.1388255,21.7361111 C39.2405949,21.7361111 39.2836512,21.7633333 39.2836512,21.81 C39.2836512,21.8566667 39.2131954,21.9033333 39.1075118,21.9033333 C38.492981,21.9033333 37.9058496,21.8761111 37.6553402,21.8761111 C37.4048308,21.8761111 36.8529273,21.9033333 36.4810775,21.9033333 C36.359737,21.9033333 36.2931954,21.8761111 36.2931954,21.81 C36.2931954,21.7438889 36.3323375,21.7361111 36.4419354,21.7361111 C36.5552756,21.7360693 36.6682315,21.7230199 36.7785574,21.6972222 C36.9664394,21.6622222 37.0212383,21.5066667 37.0486378,21.2344444 C37.0956083,20.8455556 37.0956083,20.1144444 37.0956083,19.2161111 L37.0564662,17.5866667 Z" id="Shape"></path>
                <path d="M41.3620962,21.04 C40.6340972,20.3587191 40.2158718,19.4128545 40.2033255,18.4193071 C40.1907791,17.4257597 40.5849882,16.4697681 41.2955547,15.7705556 C41.9687986,15.1561111 42.8612383,14.7866667 44.2429541,14.7866667 C44.6947616,14.7854736 45.146067,14.8166657 45.5933563,14.88 C45.9495493,14.9266667 46.243115,15.0083333 46.5249381,15.0394444 C46.6267075,15.0394444 46.6658496,15.0938889 46.6658496,15.1483333 C46.6658496,15.2027778 46.6384501,15.335 46.6188791,15.6577778 C46.599308,15.9805556 46.6188791,16.4744444 46.5914796,16.6572222 C46.5640801,16.84 46.5601659,16.8711111 46.4779675,16.8711111 C46.3957692,16.8711111 46.3840265,16.7972222 46.3840265,16.665 C46.3709449,16.3465807 46.2415327,16.0438071 46.0200051,15.8133333 C45.7146968,15.4905556 44.9866539,15.2416667 44.1294421,15.2416667 C43.4921645,15.1970386 42.8626536,15.4022607 42.3758764,15.8133333 C41.694804,16.4355556 41.5186646,17.3144444 41.5186646,18.2127778 C41.5186646,20.4177778 43.2056887,21.5105556 44.4543214,21.5105556 C45.2841338,21.5105556 45.7890667,21.4172222 46.1609166,20.9933333 C46.3110803,20.8158353 46.4194056,20.6072296 46.4779675,20.3827778 C46.505367,20.2311111 46.5249381,20.1961111 46.599308,20.1961111 C46.673678,20.1961111 46.6815064,20.2622222 46.6815064,20.3361111 C46.6433776,20.7500561 46.5753561,21.1607435 46.4779675,21.565 C46.4606624,21.6956776 46.3642219,21.8023123 46.2352866,21.8333333 C45.6903357,21.991811 45.1236557,22.0639923 44.5560909,22.0472222 C43.2800587,22.0472222 42.2075654,21.7711111 41.3620962,21.04" id="Shape"></path>
                <path d="M51.6760373,19.0216667 C51.7230078,19.0216667 51.7308362,18.9944444 51.7230078,18.9672222 L50.885367,16.6805556 C50.885367,16.6416667 50.865796,16.595 50.8383965,16.595 C50.810997,16.595 50.791426,16.6416667 50.7796834,16.6805556 L49.9224716,18.9555556 C49.9224716,18.9944444 49.9224716,19.0216667 49.9616137,19.0216667 L51.6760373,19.0216667 Z M49.7737316,19.4844444 C49.7267611,19.4844444 49.7111043,19.5038889 49.6915332,19.5583333 L49.1905145,20.8844444 C49.1132403,21.0634103 49.066924,21.254051 49.0535171,21.4483333 C49.0535171,21.6155556 49.1357155,21.7361111 49.425367,21.7361111 L49.5819354,21.7361111 C49.6915332,21.7361111 49.7189327,21.7555556 49.7189327,21.81 C49.7189327,21.8644444 49.6641338,21.9033333 49.5623643,21.9033333 C49.2648844,21.9033333 48.8617209,21.8761111 48.5720694,21.8761111 C48.4703,21.8761111 47.9575386,21.9033333 47.4760909,21.9033333 C47.3508362,21.9033333 47.2960373,21.8838889 47.2960373,21.81 C47.2960373,21.7361111 47.3351793,21.7361111 47.4095493,21.7361111 C47.5046976,21.7421663 47.6001383,21.7421663 47.6952866,21.7361111 C48.1258496,21.6816667 48.301989,21.3472222 48.4781284,20.9038889 L50.8266539,15.0705556 C50.9362517,14.8022222 50.9949649,14.7011111 51.0849917,14.7011111 C51.1750185,14.7011111 51.2259032,14.7827778 51.3198442,14.9966667 C51.5429541,15.5061111 53.0342678,19.2744444 53.6331418,20.6938889 C53.9854206,21.5261111 54.2555011,21.6583333 54.4512115,21.7011111 C54.5798784,21.728146 54.711125,21.7411858 54.8426324,21.74 C54.9170024,21.74 54.9639729,21.74 54.9639729,21.8138889 C54.9639729,21.8877778 54.8817745,21.9072222 54.5334099,21.9072222 C54.1850453,21.9072222 53.5196297,21.9072222 52.7720158,21.8877778 C52.6037048,21.8877778 52.494107,21.8877778 52.494107,21.8138889 C52.494107,21.74 52.533249,21.74 52.6232759,21.7322222 C52.6654808,21.7179612 52.6993027,21.6860832 52.7158589,21.6449603 C52.7324152,21.6038374 52.7300514,21.5575789 52.7093885,21.5183333 L51.9304608,19.5505556 C51.9192724,19.5089074 51.8797768,19.4811123 51.8365198,19.4844444 L49.7737316,19.4844444 Z" id="Shape"></path>
                <path d="M60.180863,18.4288889 C60.180863,19.4127778 60.180863,20.1244444 60.180863,20.2994444 C60.172206,20.5395031 60.2066676,20.7791742 60.2826324,21.0072222 C60.4039729,21.1822222 60.7679944,21.3766667 61.5038657,21.3766667 C62.2780383,21.43959 63.0463272,21.1995701 63.6449381,20.7077778 C64.2438121,20.1983333 64.4277799,19.3544444 64.4277799,18.4016667 C64.460846,17.5409089 64.1368015,16.7044056 63.531426,16.0877778 C62.8068309,15.4445766 61.8557739,15.111903 60.8854206,15.1622222 C60.6814358,15.1593768 60.4778167,15.1802596 60.2787182,15.2244444 C60.2017118,15.2527717 60.154623,15.3302075 60.1652062,15.4111111 C60.1652062,15.7261111 60.1652062,16.5311111 60.1652062,17.2622222 L60.180863,18.4288889 Z M59.0066003,17.41 C59.0066003,16.0022222 59.0066003,15.7455556 59.0066003,15.4655556 C59.0066003,15.1855556 58.9126592,15.0027778 58.6151793,14.9366667 C58.4950506,14.9155988 58.3731073,14.9064797 58.2511579,14.9094444 C58.1493885,14.9094444 58.0945895,14.89 58.0945895,14.8238889 C58.0945895,14.7577778 58.1572169,14.7422222 58.2981284,14.7422222 C58.7913188,14.7422222 59.3823643,14.7694444 59.6407021,14.7694444 C59.8990399,14.7694444 60.517485,14.7422222 61.0772169,14.7422222 C62.2514796,14.7422222 63.8171633,14.7422222 64.8152866,15.7961111 C65.4114625,16.4269482 65.7359296,17.264268 65.7194689,18.1294444 C65.7336924,19.0905387 65.3683537,20.0189179 64.7017745,20.7155556 C64.2751257,21.1472222 63.3044019,21.8044444 61.5704072,21.8044444 C60.8893348,21.8044444 60.0477799,21.6955556 59.581989,21.6955556 C59.3706217,21.6955556 58.7991472,21.7227778 58.4077263,21.7227778 C58.2863858,21.7227778 58.2237584,21.6955556 58.2237584,21.6294444 C58.2237584,21.5633333 58.2589863,21.5555556 58.3724984,21.5555556 C58.4843828,21.5565596 58.5960142,21.5448163 58.7052062,21.5205556 C58.8930882,21.4816667 58.9400587,21.2794444 58.9752866,21.0111111 C59.0222571,20.6222222 59.0222571,19.8872222 59.0222571,19.0394444 L59.0066003,17.41 Z" id="Shape"></path>
                <path d="M67.6570024,17.4177778 C67.6570024,16.01 67.6570024,15.7533333 67.6374314,15.4733333 C67.6178603,15.1933333 67.5434903,15.0105556 67.2460104,14.9444444 C67.1258594,14.9235535 67.0039338,14.9144357 66.881989,14.9172222 C66.7802196,14.9172222 66.7254206,14.8977778 66.7254206,14.8316667 C66.7254206,14.7655556 66.788048,14.75 66.9289595,14.75 C67.4221499,14.75 68.0092812,14.7772222 68.2715332,14.7772222 C68.5337852,14.7772222 70.4243482,14.7772222 70.6004877,14.7772222 C70.731985,14.7672812 70.862719,14.7490968 70.9919086,14.7227778 C71.0391291,14.7062094 71.0875422,14.6932095 71.1367343,14.6838889 C71.1837048,14.6838889 71.1954474,14.7227778 71.1954474,14.7694444 C71.1600696,14.9689407 71.1352455,15.1701429 71.1210775,15.3722222 C71.1210775,15.4655556 71.093678,15.8738889 71.074107,15.9827778 C71.074107,16.0294444 71.0467075,16.0838889 70.9801659,16.0838889 C70.9136244,16.0838889 70.8979675,16.0372222 70.8979675,15.9555556 C70.89766,15.8415699 70.8778047,15.7284697 70.8392544,15.6211111 C70.7766271,15.4538889 70.682686,15.345 70.2168952,15.2905556 C70.0564126,15.2711111 69.0778603,15.2516667 68.8938925,15.2516667 C68.846922,15.2516667 68.8273509,15.2788889 68.8273509,15.345 L68.8273509,17.6783333 C68.8273509,17.7444444 68.8273509,17.7794444 68.8938925,17.7794444 C69.0974314,17.7794444 70.1699247,17.7794444 70.3852062,17.7794444 C70.5462383,17.7890832 70.7051703,17.7392188 70.831426,17.6394444 C70.8979675,17.5655556 70.9331954,17.5188889 70.9801659,17.5188889 C71.0271364,17.5188889 71.0467075,17.5383333 71.0467075,17.5927778 C71.0101349,17.8169009 70.9853114,18.0427611 70.9723375,18.2694444 C70.9723375,18.4561111 70.9331954,18.8255556 70.9331954,18.8877778 C70.9331954,18.95 70.9331954,19.0666667 70.850997,19.0666667 C70.8274814,19.0691475 70.8040973,19.0609343 70.7873757,19.0443209 C70.7706542,19.0277075 70.7623875,19.0044746 70.7648844,18.9811111 C70.7614415,18.8702082 70.7496661,18.7597157 70.7296566,18.6505556 C70.682686,18.4638889 70.5535171,18.3238889 70.2051525,18.2888889 C70.0290131,18.2694444 69.1052598,18.2577778 68.8821499,18.2577778 C68.8351793,18.2577778 68.8273509,18.2966667 68.8273509,18.3511111 L68.8273509,19.0861111 C68.8273509,19.3972222 68.8273509,20.2527778 68.8273509,20.5211111 C68.846922,21.1588889 68.9956619,21.2988889 69.9468147,21.2988889 C70.2436263,21.316783 70.5411583,21.2785124 70.8235976,21.1861111 C71.0662785,21.0733333 71.1758764,20.8788889 71.2424179,20.5016667 C71.2424179,20.4005556 71.2776458,20.3616667 71.3441874,20.3616667 C71.4107289,20.3616667 71.4185574,20.4355556 71.4185574,20.5288889 C71.4031584,20.8735766 71.3626051,21.2166998 71.2972169,21.5555556 C71.2306753,21.7966667 71.1484769,21.7966667 70.7922839,21.7966667 C69.3870828,21.7966667 68.7608094,21.7422222 68.2128201,21.7422222 C67.9975386,21.7422222 67.4104072,21.7694444 67.0385574,21.7694444 C66.9172169,21.7694444 66.8506753,21.7422222 66.8506753,21.6761111 C66.8506753,21.61 66.8898174,21.6022222 66.9994153,21.6022222 C67.112591,21.6031846 67.2255141,21.5914435 67.3360373,21.5672222 C67.5239193,21.5283333 67.5669756,21.3261111 67.6061177,21.0577778 C67.6530882,20.6688889 67.6530882,19.9338889 67.6530882,19.0861111 L67.6570024,17.4177778 Z" id="Shape"></path>
                <path d="M76.9375922,20.8555556 C76.2111179,20.1731848 75.7943139,19.2272197 75.7825097,18.2340171 C75.7707055,17.2408145 76.1649108,16.2853349 76.8749649,15.5861111 C77.5442946,14.9755556 78.4406485,14.6022222 79.8184501,14.6022222 C80.2715637,14.6008418 80.7241841,14.6320344 81.1727665,14.6955556 C81.5250453,14.7422222 81.8225252,14.8277778 82.1043482,14.855 C82.2061177,14.855 82.2413456,14.9094444 82.2413456,14.9638889 C82.2413456,15.0183333 82.2139461,15.1505556 82.1982893,15.4733333 C82.1826324,15.7961111 82.1982893,16.29 82.1669756,16.4766667 C82.1356619,16.6633333 82.1395761,16.6866667 82.0573777,16.6866667 C81.9751793,16.6866667 81.9634367,16.6127778 81.9634367,16.4844444 C81.9492974,16.1662624 81.8200366,15.8638429 81.5994153,15.6327778 C81.2901927,15.3061111 80.5660641,15.0572222 79.7088523,15.0572222 C79.0709341,15.012823 78.4410452,15.2195652 77.9552866,15.6327778 C77.2742142,16.2511111 77.0980748,17.1338889 77.0980748,18.0283333 C77.0980748,20.2333333 78.7850989,21.3261111 80.0337316,21.3261111 C80.863544,21.3261111 81.3645627,21.2327778 81.7403268,20.8088889 C81.8897295,20.6308882 81.9979625,20.4224603 82.0573777,20.1983333 C82.0847772,20.0505556 82.1043482,20.0116667 82.1787182,20.0116667 C82.2530882,20.0116667 82.2609166,20.0777778 82.2609166,20.1516667 C82.2228397,20.566901 82.1548187,20.9788851 82.0573777,21.3844444 C82.0361332,21.5132828 81.9413716,21.6180611 81.8146968,21.6527778 C81.2693909,21.8092478 80.7028256,21.8801023 80.1355011,21.8627778 C78.8594689,21.8627778 77.7869756,21.5866667 76.9375922,20.8555556" id="Shape"></path>
                <path d="M89.286922,17.6783333 C89.3182356,17.6783333 89.3456351,17.6783333 89.3456351,17.6122222 L89.3456351,17.4177778 C89.3456351,16.01 89.3456351,15.7533333 89.3260641,15.4733333 C89.306493,15.1933333 89.232123,15.0066667 88.9346431,14.9444444 C88.8158126,14.9235318 88.6951832,14.9144128 88.5745359,14.9172222 C88.4727665,14.9172222 88.4140533,14.8977778 88.4140533,14.8316667 C88.4140533,14.7655556 88.4805949,14.75 88.6097638,14.75 C89.1146968,14.75 89.7018281,14.7772222 89.9523375,14.7772222 C90.2028469,14.7772222 90.7625788,14.75 91.1266003,14.75 C91.2557692,14.75 91.3223107,14.75 91.3223107,14.8316667 C91.3223107,14.9133333 91.2675118,14.9172222 91.1539997,14.9172222 C91.0633494,14.9185104 90.972983,14.9276187 90.8839193,14.9444444 C90.6334099,14.9872222 90.5590399,15.1466667 90.5394689,15.4733333 C90.5198978,15.8 90.5394689,16.0255556 90.5394689,17.4177778 L90.5394689,19.0472222 C90.5394689,19.8988889 90.5394689,20.6338889 90.5825252,21.0305556 C90.6099247,21.2911111 90.6686378,21.4933333 90.9465466,21.5322222 C91.1050267,21.5519008 91.2644092,21.5635825 91.4240801,21.5672222 C91.5258496,21.5672222 91.5728201,21.5983333 91.5728201,21.6411111 C91.5728201,21.6838889 91.4984501,21.7344444 91.3849381,21.7344444 C90.7782356,21.7344444 90.1911043,21.7072222 89.9327665,21.7072222 C89.6744287,21.7072222 89.1499247,21.7344444 88.7585037,21.7344444 C88.6293348,21.7344444 88.5627933,21.7072222 88.5627933,21.6411111 C88.5627933,21.575 88.5980212,21.5672222 88.7115332,21.5672222 C88.8246072,21.5662465 88.9373279,21.5545265 89.0481552,21.5322222 C89.232123,21.4933333 89.2790936,21.2911111 89.3182356,21.0227778 C89.3652062,20.6338889 89.3652062,19.8988889 89.3652062,19.0472222 L89.3652062,18.2344444 C89.3652451,18.2193051 89.3589375,18.2048333 89.3477977,18.1945035 C89.3366579,18.1841736 89.321692,18.1789186 89.306493,18.18 L85.7484769,18.18 C85.7210775,18.18 85.693678,18.18 85.693678,18.2344444 L85.693678,19.0472222 C85.693678,19.8988889 85.693678,20.6338889 85.7367343,21.0305556 C85.7641338,21.2911111 85.8228469,21.4933333 86.1007557,21.5322222 C86.2592358,21.5519008 86.4186183,21.5635825 86.5782893,21.5672222 C86.6800587,21.5672222 86.7270292,21.5983333 86.7270292,21.6411111 C86.7270292,21.6838889 86.6526592,21.7344444 86.5391472,21.7344444 C85.9324448,21.7344444 85.3453134,21.7072222 85.0869756,21.7072222 C84.8286378,21.7072222 84.3041338,21.7344444 83.9127129,21.7344444 C83.7913724,21.7344444 83.7248308,21.7072222 83.7248308,21.6411111 C83.7248308,21.575 83.7600587,21.5672222 83.8735708,21.5672222 C83.9866447,21.5662465 84.0993654,21.5545265 84.2101927,21.5322222 C84.3941606,21.4933333 84.4411311,21.2911111 84.4802732,21.0227778 C84.5272437,20.6338889 84.5272437,19.8988889 84.5272437,19.0472222 L84.5272437,17.4177778 C84.5272437,16.01 84.5272437,15.7533333 84.5076726,15.4733333 C84.4881016,15.1933333 84.4137316,15.0066667 84.1162517,14.9444444 C83.9974443,14.9233503 83.8767965,14.9142299 83.7561445,14.9172222 C83.6543751,14.9172222 83.5956619,14.8977778 83.5956619,14.8316667 C83.5956619,14.7655556 83.6622035,14.75 83.7913724,14.75 C84.2963053,14.75 84.8834367,14.7772222 85.1339461,14.7772222 C85.3844555,14.7772222 85.9441874,14.75 86.3082088,14.75 C86.4412919,14.75 86.5039193,14.75 86.5039193,14.8316667 C86.5039193,14.9133333 86.4491204,14.9172222 86.3356083,14.9172222 C86.2449681,14.9186827 86.1546166,14.9277895 86.0655279,14.9444444 C85.8150185,14.9872222 85.7406485,15.1466667 85.7210775,15.4733333 C85.7015064,15.8 85.7210775,16.0255556 85.7210775,17.4177778 L85.7210775,17.6122222 C85.7210775,17.6588889 85.7484769,17.6783333 85.7758764,17.6783333 L89.286922,17.6783333 Z" id="Shape"></path>
                <path d="M93.7491204,17.4177778 C93.7491204,16.01 93.7491204,15.7533333 93.7295493,15.4733333 C93.7099783,15.1933333 93.6160373,14.9988889 93.4124984,14.9522222 C93.3022194,14.9265349 93.1891188,14.9147754 93.0758764,14.9172222 C92.9858496,14.9172222 92.9271364,14.8977778 92.9271364,14.8238889 C92.9271364,14.75 93.0015064,14.75 93.1502464,14.75 C93.5064394,14.75 94.0935708,14.7772222 94.3636512,14.7772222 C94.6337316,14.7772222 95.146493,14.75 95.502686,14.75 C95.6240265,14.75 95.6983965,14.75 95.6983965,14.8238889 C95.6983965,14.8977778 95.6396834,14.9172222 95.5457423,14.9172222 C95.4524494,14.917571 95.3593988,14.9266856 95.2678335,14.9444444 C95.0173241,14.9911111 94.9429541,15.1466667 94.9233831,15.4733333 C94.9038121,15.8 94.9038121,16.0255556 94.9038121,17.4177778 L94.9038121,19.0511111 C94.9038121,19.9455556 94.9038121,20.6766667 94.9429541,21.0772222 C94.9703536,21.3261111 95.032981,21.4933333 95.3343751,21.5322222 C95.4913594,21.553687 95.6495412,21.5653765 95.8079944,21.5672222 C95.913678,21.5672222 95.9567343,21.5944444 95.9567343,21.6411111 C95.9567343,21.6877778 95.8862785,21.7344444 95.7805949,21.7344444 C95.1660641,21.7344444 94.5789327,21.7072222 94.3284233,21.7072222 C94.0779139,21.7072222 93.5455815,21.7344444 93.1541606,21.7344444 C93.0328201,21.7344444 92.9662785,21.7072222 92.9662785,21.6411111 C92.9662785,21.575 93.0054206,21.5672222 93.1150185,21.5672222 C93.2281943,21.5681846 93.3411173,21.5564435 93.4516405,21.5322222 C93.6356083,21.4933333 93.6904072,21.3377778 93.7217209,21.0694444 C93.7686914,20.6805556 93.7686914,19.9455556 93.7686914,19.0511111 L93.7491204,17.4177778 Z" id="Shape"></path>
                <path d="M99.2916405,19.0511111 C99.2916405,20.2177778 99.2916405,20.875 99.4873509,21.0383333 C99.6830614,21.2016667 99.8787718,21.2444444 100.614643,21.2444444 C101.107833,21.2444444 101.471855,21.2444444 101.706707,20.9838889 C101.835502,20.8229984 101.919221,20.6311532 101.949388,20.4277778 C101.949388,20.3461111 101.976788,20.2916667 102.051158,20.2916667 C102.125528,20.2916667 102.125528,20.3344444 102.125528,20.4472222 C102.104653,20.8053349 102.057558,21.1614618 101.984616,21.5127778 C101.929817,21.715 101.882847,21.7616667 101.397485,21.7616667 C100.054911,21.7616667 99.4403804,21.7072222 98.6849381,21.7072222 C98.4696566,21.7072222 97.9020962,21.7344444 97.5106753,21.7344444 C97.3893348,21.7344444 97.3227933,21.7072222 97.3227933,21.6411111 C97.3227933,21.575 97.3619354,21.5672222 97.4715332,21.5672222 C97.5804995,21.5698786 97.6894333,21.5607509 97.7964126,21.54 C97.9842946,21.5011111 98.0312651,21.2988889 98.066493,21.0305556 C98.1134635,20.6416667 98.1134635,19.9066667 98.1134635,19.0588889 L98.1134635,17.4255556 C98.1134635,16.0177778 98.1134635,15.7611111 98.1134635,15.4811111 C98.1134635,15.2011111 98.0195225,15.0183333 97.7220426,14.9522222 C97.6203695,14.931334 97.5166059,14.9221992 97.4128201,14.925 C97.3110507,14.925 97.2562517,14.9055556 97.2562517,14.8394444 C97.2562517,14.7733333 97.3227933,14.7577778 97.4597906,14.7577778 C97.898182,14.7577778 98.4853134,14.785 98.7358228,14.785 C98.9863322,14.785 99.6400051,14.7577778 100.004027,14.7577778 C100.133195,14.7577778 100.199737,14.7577778 100.199737,14.8394444 C100.199737,14.9211111 100.144938,14.925 100.031426,14.925 C99.9108579,14.9246889 99.7904515,14.9337909 99.6713188,14.9522222 C99.4168952,14.9988889 99.3425252,15.1544444 99.3268684,15.4811111 C99.3112115,15.8077778 99.3072973,16.0333333 99.3072973,17.4255556 L99.2916405,19.0511111 Z" id="Shape"></path>
                <path d="M104.059147,17.4177778 C104.059147,16.01 104.059147,15.7533333 104.039576,15.4733333 C104.020005,15.1933333 103.945635,15.0105556 103.648155,14.9444444 C103.528004,14.9235535 103.406079,14.9144357 103.284134,14.9172222 C103.17845,14.9172222 103.123651,14.8977778 103.123651,14.8316667 C103.123651,14.7655556 103.190193,14.75 103.331104,14.75 C103.824295,14.75 104.411426,14.7772222 104.673678,14.7772222 C104.93593,14.7772222 106.826493,14.7772222 107.002632,14.7772222 C107.134184,14.7677842 107.264951,14.7495953 107.394053,14.7227778 C107.442744,14.7066622 107.492426,14.6936725 107.542793,14.6838889 C107.589764,14.6838889 107.601506,14.7227778 107.601506,14.7694444 C107.566129,14.9689407 107.541304,15.1701429 107.527136,15.3722222 C107.527136,15.4655556 107.499737,15.8738889 107.480166,15.9827778 C107.480166,16.0294444 107.452766,16.0838889 107.386225,16.0838889 C107.319683,16.0838889 107.300112,16.0372222 107.300112,15.9555556 C107.301372,15.8417703 107.282833,15.7286244 107.245313,15.6211111 C107.178772,15.4538889 107.088745,15.345 106.61904,15.2905556 C106.462472,15.2711111 105.483919,15.2516667 105.299951,15.2516667 C105.252981,15.2516667 105.23341,15.2788889 105.23341,15.345 L105.23341,17.6783333 C105.23341,17.7444444 105.23341,17.7794444 105.299951,17.7794444 C105.50349,17.7794444 106.575984,17.7794444 106.787351,17.7794444 C106.949568,17.7889506 107.109679,17.739153 107.237485,17.6394444 C107.300112,17.5655556 107.339254,17.5188889 107.386225,17.5188889 C107.433195,17.5188889 107.452766,17.5383333 107.452766,17.5927778 C107.452766,17.6472222 107.405796,17.795 107.374482,18.2694444 C107.374482,18.4561111 107.339254,18.8255556 107.339254,18.8877778 C107.339254,18.95 107.339254,19.0666667 107.253142,19.0666667 C107.229884,19.0694354 107.206672,19.0611556 107.190498,19.044321 C107.174324,19.0274865 107.167078,19.004065 107.170943,18.9811111 C107.1675,18.8702082 107.155725,18.7597157 107.135716,18.6505556 C107.088745,18.4638889 106.955662,18.3238889 106.611212,18.2888889 C106.435072,18.2694444 105.511319,18.2577778 105.288209,18.2577778 C105.241238,18.2577778 105.23341,18.2966667 105.23341,18.3511111 L105.23341,19.0861111 C105.23341,19.3972222 105.23341,20.2527778 105.23341,20.5211111 C105.252981,21.1588889 105.401721,21.2988889 106.352874,21.2988889 C106.649685,21.316783 106.947217,21.2785124 107.229657,21.1861111 C107.468423,21.0733333 107.581935,20.8788889 107.644563,20.5016667 C107.664134,20.4005556 107.683705,20.3616667 107.750246,20.3616667 C107.816788,20.3616667 107.824616,20.4355556 107.824616,20.5288889 C107.809217,20.8735766 107.768664,21.2166998 107.703276,21.5555556 C107.636734,21.7966667 107.554536,21.7966667 107.198343,21.7966667 C105.793142,21.7966667 105.166868,21.7422222 104.618879,21.7422222 C104.403598,21.7422222 103.816466,21.7694444 103.444616,21.7694444 C103.32719,21.7694444 103.260649,21.7422222 103.260649,21.6761111 C103.260649,21.61 103.295876,21.6022222 103.409388,21.6022222 C103.522564,21.6031846 103.635487,21.5914435 103.74601,21.5672222 C103.933892,21.5283333 103.976949,21.3261111 104.016091,21.0577778 C104.063061,20.6688889 104.063061,19.9338889 104.063061,19.0861111 L104.059147,17.4177778 Z" id="Shape"></path>
            </g>
        </g>
    </g>
</svg>