<?xml version="1.0" encoding="UTF-8"?>
<svg width="22px" height="18px" viewBox="0 0 22 18" version="1.1" xmlns="http://www.w3.org/2000/svg" xmlns:xlink="http://www.w3.org/1999/xlink">
    <g id="Symbols" stroke="none" stroke-width="1" fill="none" fill-rule="evenodd">
        <path d="M21.107168,2.03571671 C20.5178816,2.89286059 19.7812736,3.65625436 18.9375226,4.27232652 C18.9509154,4.45982675 18.9509154,4.64732697 18.9509154,4.83482719 C18.9509154,10.553584 14.5982317,17.1428776 6.64286506,17.1428776 C4.19196928,17.1428776 1.91518085,16.4330553 0,15.200911 C0.348214701,15.2410896 0.683036529,15.2544825 1.0446441,15.2544825 C3.06696794,15.2544825 4.9285773,14.5714459 6.41518622,13.406266 C4.51339824,13.3660874 2.91964634,12.1205502 2.37053854,10.4062624 C2.638396,10.446441 2.90625346,10.4732268 3.1875038,10.4732268 C3.57589712,10.4732268 3.96429044,10.4196553 4.32589801,10.3259052 C2.34375279,9.92411897 0.857143879,8.18304547 0.857143879,6.08036439 C0.857143879,6.06697152 0.857143879,6.04018577 0.857143879,6.0267929 C1.43303742,6.34822185 2.10268108,6.54911495 2.81250335,6.5759007 C1.64732339,5.79911406 0.883929625,4.47321962 0.883929625,2.97321783 C0.883929625,2.16964544 1.09821559,1.43303742 1.47321604,0.790179513 C3.60268287,3.41518264 6.80357954,5.1294704 10.3928695,5.31697062 C10.3259052,4.99554167 10.2857265,4.66071984 10.2857265,4.32589801 C10.2857265,1.9419666 12.2143003,0 14.6116246,0 C15.8571618,0 16.9821631,0.522322051 17.7723426,1.36607306 C18.7500224,1.17857283 19.6875235,0.81696526 20.5178816,0.321428955 C20.1964526,1.32589444 19.5134161,2.16964544 18.6160936,2.70536037 C19.4866304,2.61161026 20.3303814,2.37053854 21.107168,2.03571671 Z" id="twitter---FontAwesome-Copy" fill="#FFFFFF"></path>
    </g>
</svg>