<?xml version="1.0" encoding="UTF-8"?>
<svg width="24px" height="17px" viewBox="0 0 24 17" version="1.1" xmlns="http://www.w3.org/2000/svg" xmlns:xlink="http://www.w3.org/1999/xlink">
    <g id="Symbols" stroke="none" stroke-width="1" fill="none" fill-rule="evenodd">
        <path d="M9.52245426,11.5446566 L16.0046048,8.19643834 L9.52245426,4.80804145 L9.52245426,11.5446566 Z M12.0001358,0 C17.0492489,0 20.3974672,0.241071716 20.3974672,0.241071716 C20.8662178,0.294643208 21.897469,0.294643208 22.8081844,1.25893007 C22.8081844,1.25893007 23.5447924,1.98214522 23.7590784,3.64286149 C24.013543,5.58482809 24.0002716,7.52679469 24.0002716,7.52679469 L24.0002716,9.34822543 C24.0002716,9.34822543 24.013543,11.290192 23.7590784,13.2321586 C23.5447924,14.879482 22.8081844,15.61609 22.8081844,15.61609 C21.897469,16.566984 20.8662178,16.566984 20.3974672,16.6205555 C20.3974672,16.6205555 17.0492489,16.8750201 12.0001358,16.8750201 C5.75905691,16.8214486 3.84387606,16.6339484 3.84387606,16.6339484 C3.30816114,16.5401983 2.10280256,16.566984 1.19208718,15.61609 C1.19208718,15.61609 0.455479163,14.879482 0.241193193,13.2321586 C-0.0132713958,11.290192 -1.58095759e-13,9.34822543 -1.58095759e-13,9.34822543 L-1.58095759e-13,7.52679469 C-1.58095759e-13,7.52679469 -0.0132713958,5.58482809 0.241193193,3.64286149 C0.455479163,1.98214522 1.19208718,1.25893007 1.19208718,1.25893007 C2.10280256,0.294643208 3.13405378,0.294643208 3.60280434,0.241071716 C3.60280434,0.241071716 6.95102262,0 12.0001358,0 Z" id="youtube-play---FontAwesome-Copy" fill="#FFFFFF"></path>
    </g>
</svg>