<?xml version="1.0" encoding="UTF-8"?>
<svg width="21px" height="21px" viewBox="0 0 21 21" version="1.1" xmlns="http://www.w3.org/2000/svg" xmlns:xlink="http://www.w3.org/1999/xlink">
    <g id="Symbols" stroke="none" stroke-width="1" fill="none" fill-rule="evenodd">
        <path d="M16.7143056,0 C18.8437725,0 20.5714531,1.72768063 20.5714531,3.85714746 L20.5714531,16.7143056 C20.5714531,18.8437725 18.8437725,20.5714531 16.7143056,20.5714531 L3.85714746,20.5714531 C1.72768063,20.5714531 0,18.8437725 0,16.7143056 L0,3.85714746 C0,1.72768063 1.72768063,0 3.85714746,0 L16.7143056,0 Z M9.34822543,10.2857265 C9.34822543,8.71876039 8.07590248,7.44643745 6.50893633,7.44643745 C4.94197018,7.44643745 3.66964723,8.71876039 3.66964723,10.2857265 C3.66964723,11.8526927 4.94197018,13.1250156 6.50893633,13.1250156 C8.07590248,13.1250156 9.34822543,11.8526927 9.34822543,10.2857265 Z M16.9018059,10.2857265 C16.9018059,8.71876039 15.6294829,7.44643745 14.0625168,7.44643745 C12.4955506,7.44643745 11.2232277,8.71876039 11.2232277,10.2857265 C11.2232277,11.8526927 12.4955506,13.1250156 14.0625168,13.1250156 C15.6294829,13.1250156 16.9018059,11.8526927 16.9018059,10.2857265 Z" id="flickr---FontAwesome-Copy-2" fill="#FFFFFF"></path>
    </g>
</svg>