<?xml version="1.0" encoding="UTF-8"?>
<svg width="21px" height="21px" viewBox="0 0 21 21" version="1.1" xmlns="http://www.w3.org/2000/svg" xmlns:xlink="http://www.w3.org/1999/xlink">
    <g id="Symbols" stroke="none" stroke-width="1" fill="none" fill-rule="evenodd">
        <path d="M13.7151391,10.2865636 C13.7151391,8.39816849 12.1749587,6.85798809 10.2865636,6.85798809 C8.39816849,6.85798809 6.85798809,8.39816849 6.85798809,10.2865636 C6.85798809,12.1749587 8.39816849,13.7151391 10.2865636,13.7151391 C12.1749587,13.7151391 13.7151391,12.1749587 13.7151391,10.2865636 Z M15.5633556,10.2865636 C15.5633556,13.2062099 13.2062099,15.5633556 10.2865636,15.5633556 C7.36691726,15.5633556 5.0097716,13.2062099 5.0097716,10.2865636 C5.0097716,7.36691726 7.36691726,5.0097716 10.2865636,5.0097716 C13.2062099,5.0097716 15.5633556,7.36691726 15.5633556,10.2865636 Z M17.0097859,4.79548563 C17.0097859,5.47852216 16.4606781,6.02762995 15.7776416,6.02762995 C15.094605,6.02762995 14.5454973,5.47852216 14.5454973,4.79548563 C14.5454973,4.1124491 15.094605,3.5633413 15.7776416,3.5633413 C16.4606781,3.5633413 17.0097859,4.1124491 17.0097859,4.79548563 Z M10.2865636,1.84905354 C8.78656181,1.84905354 5.57227227,1.72851769 4.21959208,2.26423261 C3.75084152,2.45173283 3.40262682,2.67941168 3.04101925,3.04101925 C2.67941168,3.40262682 2.45173283,3.75084152 2.26423261,4.21959208 C1.72851769,5.57227227 1.84905354,8.78656181 1.84905354,10.2865636 C1.84905354,11.7865654 1.72851769,15.0008549 2.26423261,16.3535351 C2.45173283,16.8222857 2.67941168,17.1705004 3.04101925,17.532108 C3.40262682,17.8937155 3.75084152,18.1213944 4.21959208,18.3088946 C5.57227227,18.8446095 8.78656181,18.7240737 10.2865636,18.7240737 C11.7865654,18.7240737 15.0008549,18.8446095 16.3535351,18.3088946 C16.8222857,18.1213944 17.1705004,17.8937155 17.532108,17.532108 C17.8937155,17.1705004 18.1213944,16.8222857 18.3088946,16.3535351 C18.8446095,15.0008549 18.7240737,11.7865654 18.7240737,10.2865636 C18.7240737,8.78656181 18.8446095,5.57227227 18.3088946,4.21959208 C18.1213944,3.75084152 17.8937155,3.40262682 17.532108,3.04101925 C17.1705004,2.67941168 16.8222857,2.45173283 16.3535351,2.26423261 C15.0008549,1.72851769 11.7865654,1.84905354 10.2865636,1.84905354 Z M20.5722901,10.2865636 C20.5722901,11.7062082 20.585683,13.1124598 20.5053258,14.5321044 C20.4249685,16.1794278 20.0499681,17.6392509 18.8446095,18.8446095 C17.6392509,20.0499681 16.1794278,20.4249685 14.5321044,20.5053258 C13.1124598,20.585683 11.7062082,20.5722901 10.2865636,20.5722901 C8.86691905,20.5722901 7.46066738,20.585683 6.04102283,20.5053258 C4.39369943,20.4249685 2.93387627,20.0499681 1.72851769,18.8446095 C0.523159106,17.6392509 0.148158659,16.1794278 0.0678014201,14.5321044 C-0.0125558185,13.1124598 0.000837054569,11.7062082 0.000837054569,10.2865636 C0.000837054569,8.86691905 -0.0125558185,7.46066738 0.0678014201,6.04102283 C0.148158659,4.39369943 0.523159106,2.93387627 1.72851769,1.72851769 C2.93387627,0.523159106 4.39369943,0.148158659 6.04102283,0.0678014201 C7.46066738,-0.0125558185 8.86691905,0.000837054569 10.2865636,0.000837054569 C11.7062082,0.000837054569 13.1124598,-0.0125558185 14.5321044,0.0678014201 C16.1794278,0.148158659 17.6392509,0.523159106 18.8446095,1.72851769 C20.0499681,2.93387627 20.4249685,4.39369943 20.5053258,6.04102283 C20.585683,7.46066738 20.5722901,8.86691905 20.5722901,10.2865636 Z" id="instagram---FontAwesome-Copy-2" fill="#FFFFFF"></path>
    </g>
</svg>