<?xml version="1.0" encoding="UTF-8"?>
<svg width="21px" height="21px" viewBox="0 0 21 21" version="1.1" xmlns="http://www.w3.org/2000/svg" xmlns:xlink="http://www.w3.org/1999/xlink">
    <g id="Symbols" stroke="none" stroke-width="1" fill="none" fill-rule="evenodd">
        <path d="M16.713125,5.68434189e-14 L3.856875,5.68434189e-14 C1.72755879,5.68434189e-14 0,1.72755879 0,3.856875 L0,16.713125 C0,18.8424412 1.72755879,20.57 3.856875,20.57 L16.713125,20.57 C18.8424412,20.57 20.57,18.8424412 20.57,16.713125 L20.57,3.856875 C20.57,1.72755879 18.8424412,5.68434189e-14 16.713125,5.68434189e-14 Z M6.36013561,17.461013 L3.16461538,17.461013 L3.14607311,7.89299619 L6.34159255,7.89299619 L6.36013561,17.461013 Z M4.68202394,6.64136549 L4.66348087,6.64136549 C3.61891096,6.64136549 2.94519361,5.92129207 2.94519361,5.0250635 C2.94519361,4.10720082 3.64054427,3.41185096 4.70365725,3.41185096 C5.76677023,3.41185096 6.41885347,4.10720082 6.44048678,5.0250635 C6.44048678,5.92129207 5.76367919,6.64136549 4.68202394,6.64136549 Z M17.4393797,17.461013 L14.2160457,17.461013 L14.2160457,12.2628846 C14.2160457,11.0050734 13.8822776,10.1490204 12.7573558,10.1490204 C11.8982125,10.1490204 11.4346454,10.7269338 11.2121334,11.2863041 C11.1286912,11.4871828 11.1070587,11.762233 11.1070587,12.0434628 L11.1070587,17.461013 L7.86827263,17.461013 L7.84972957,7.89299619 L11.0885156,7.89299619 L11.1070587,9.24352033 C11.5211779,8.60379808 12.2103473,7.69829797 13.8606443,7.69829797 C15.9065191,7.69829797 17.4362895,9.03337009 17.4362895,11.904393 L17.4362895,17.461013 L17.4393797,17.461013 Z" id="linkedin-square---FontAwesome" fill="#FFFFFF"></path>
    </g>
</svg>