<?xml version="1.0" encoding="UTF-8"?>
<svg width="237px" height="60px" viewBox="0 0 237 60" version="1.1" xmlns="http://www.w3.org/2000/svg" xmlns:xlink="http://www.w3.org/1999/xlink">
    <!-- Generator: Sketch 60.1 (88133) - https://sketch.com -->
    <title>C.P.Cultural-01</title>
    <desc>Created with Sketch.</desc>
    <defs>
        <polygon id="path-1" points="0.9348 0.248888889 37.5794667 0.248888889 37.5794667 20.8466667 0.9348 20.8466667"></polygon>
        <polygon id="path-3" points="0.175 0.399142857 38.3025 0.399142857 38.3025 15.8457143 0.175 15.8457143"></polygon>
        <polygon id="path-5" points="0.41 0.587777778 117.8325 0.587777778 117.8325 22.8466667 0.41 22.8466667"></polygon>
    </defs>
    <g id="Symbols" stroke="none" stroke-width="1" fill="none" fill-rule="evenodd">
        <g id="01-Navegación/Organismos/Footer/SubMarca" transform="translate(-112.000000, -90.000000)">
            <g id="Group-3">
                <g id="Group-2" transform="translate(112.000000, 90.000000)">
                    <g id="C.P.Cultural-01">
                        <path d="M0,15.1829268 L0,14.8602642 C0,6.02388211 6.03689766,0 14.0935291,0 C20.9234511,0 26.0062414,3.41971545 26.6827903,10.5843496 L20.0907756,10.5843496 C19.614961,7.08333333 17.7092244,5.21087398 14.1356586,5.21087398 C9.65011473,5.21087398 6.79027077,8.79319106 6.79027077,14.8170732 L6.79027077,15.1422764 C6.79027077,21.1686992 9.48903167,24.6671748 14.1753098,24.6671748 C17.7092244,24.6671748 20.1725562,22.8379065 20.688022,19.0929878 L27,19.0929878 C26.2837999,26.2957317 21.2431391,30 14.2546122,30 C4.96383662,30 0,24.1387195 0,15.1829268" id="Fill-1" fill="#FFFFFF"></path>
                        <path d="M44.3498094,16.746685 C44.1497141,13.5603567 42.5439495,12.0313214 39.7801334,12.0313214 C37.1763935,12.0313214 35.4130538,13.7640604 34.9728442,16.746685 L44.3498094,16.746685 Z M29,19.2841792 L29,18.9597622 C29,12.3129858 33.6897332,8 39.7801334,8 C45.1902096,8 50,11.1863283 50,18.7183356 L50,20.3303612 L34.8928061,20.3303612 C35.0503811,23.8360768 36.933778,25.8504801 40.102787,25.8504801 C42.786565,25.8504801 44.1071939,24.6835848 44.4698666,22.9106081 L49.9574798,22.9106081 C49.2771558,27.4625057 45.6704383,30 39.9402096,30 C33.6096951,30 29,26.0114312 29,19.2841792 L29,19.2841792 Z" id="Fill-2" fill="#FFFFFF"></path>
                        <path d="M52,8.47281848 L57.9064327,8.47281848 L57.9064327,11.7286514 C58.9641495,9.68793747 61.2880753,8 64.8324434,8 C69.0277142,8 72,10.4351377 72,15.9301213 L72,29 L66.0961098,29 L66.0961098,16.7532664 C66.0961098,13.9678021 64.9519451,12.6326412 62.345792,12.6326412 C59.8210018,12.6326412 57.9064327,14.1245917 57.9064327,17.1476902 L57.9064327,29 L52,29 L52,8.47281848" id="Fill-3" fill="#FFFFFF"></path>
                        <path d="M76.6871508,23.3605797 L76.6871508,12.6942995 L74,12.6942995 L74,8.54937198 L76.6871508,8.54937198 L76.6871508,4 L82.4646504,4 L82.4646504,8.54937198 L86.8797919,8.54937198 L86.8797919,12.6942995 L82.4646504,12.6942995 L82.4646504,22.8380676 C82.4646504,24.5286957 83.3086111,25.3325604 84.7936814,25.3325604 C85.6752071,25.3325604 86.3163167,25.2119807 87,24.930628 L87,29.4372947 C86.1961086,29.7186473 85.0315931,30 83.4688885,30 C79.0562512,30 76.6871508,27.7466667 76.6871508,23.3605797" id="Fill-4" fill="#FFFFFF"></path>
                        <path d="M90,9.31597508 L96.002584,9.31597508 L96.002584,13.2706007 C97.3669251,10.5008816 99.4806202,9.03949688 103,9 L103,14.3394851 C98.5684755,14.2975197 96.002584,15.6823792 96.002584,19.6370048 L96.002584,30 L90,30 L90,9.31597508" id="Fill-5" fill="#FFFFFF"></path>
                        <path d="M120.131174,19.1609511 L120.131174,18.8818016 C120.131174,14.8504801 118.254644,12.4336991 115.019937,12.4336991 C111.827594,12.4336991 109.9087,14.7700046 109.9087,18.7988112 L109.9087,19.1232282 C109.9087,23.1520348 111.745356,25.5688157 115.019937,25.5688157 C118.254644,25.5688157 120.131174,23.1520348 120.131174,19.1609511 Z M104,19.2439415 L104,18.9220393 C104,12.3129858 108.749887,8 115.019937,8 C121.289986,8 126,12.2325103 126,18.7988112 L126,19.1232282 C126,25.7700046 121.250113,30 114.980063,30 C108.749887,30 104,25.8102423 104,19.2439415 L104,19.2439415 Z" id="Fill-6" fill="#FFFFFF"></path>
                        <path d="M137,18.4159574 L137,1 L143.551385,1 L143.551385,18.0170235 C143.551385,22.7718167 144.959017,24.8487662 148.89838,24.8487662 C152.757449,24.8487662 154.448615,23.011177 154.448615,17.7776631 L154.448615,1 L161,1 L161,18.176597 C161,25.9657811 156.619028,30 148.860742,30 C141.30068,30 137,26.0056745 137,18.4159574" id="Fill-7" fill="#FFFFFF"></path>
                        <path d="M165,15.1829268 L165,14.8602642 C165,6.02388211 171.03579,0 179.09342,0 C185.919611,0 191.001468,3.41971545 191.680371,10.5843496 L185.089566,10.5843496 C184.613839,7.08333333 182.708452,5.21087398 179.135542,5.21087398 C174.650821,5.21087398 171.789025,8.79319106 171.789025,14.8170732 L171.789025,15.1422764 C171.789025,21.1686992 174.489768,24.6671748 179.175186,24.6671748 C182.708452,24.6671748 185.171332,22.8379065 185.684225,19.0929878 L192,19.0929878 C191.283931,26.2957317 186.23924,30 179.251996,30 C169.965403,30 165,24.1387195 165,15.1829268" id="Fill-8" fill="#FFFFFF"></path>
                        <g id="Group-13" transform="translate(0.000000, 39.000000)">
                            <mask id="mask-2" fill="white">
                                <use xlink:href="#path-1"></use>
                            </mask>
                            <g id="Clip-10"></g>
                            <path d="M6.87293333,10.4225556 C9.76853333,10.4225556 11.3341333,8.99144444 11.3341333,6.35411111 L11.3341333,6.24166667 C11.3341333,3.34622222 9.6292,2.255 6.87293333,2.255 L3.40733333,2.255 L3.40733333,10.4225556 L6.87293333,10.4225556 Z M0.9348,0.248888889 L6.7032,0.248888889 C10.5944,0.248888889 13.8041333,1.96877778 13.8041333,6.24166667 L13.8041333,6.35411111 C13.8041333,10.7113333 10.5665333,12.4005556 6.7032,12.4005556 L3.40733333,12.4005556 L3.40733333,20.7393333 L0.9348,20.7393333 L0.9348,0.248888889 L0.9348,0.248888889 Z" id="Fill-9" fill="#FFFFFF" mask="url(#mask-2)"></path>
                            <path d="M24.7684,15.4978889 L24.7684,13.6323333 L22.724,13.6323333 C19.7397333,13.6323333 17.5534667,14.3785556 17.5534667,16.5865556 C17.5534667,18.1352222 18.2932,19.1088889 20.3654667,19.1088889 C22.8658667,19.1088889 24.7684,17.8183333 24.7684,15.4978889 Z M15.1949333,16.5865556 C15.1949333,13.1186667 18.8328,11.9431111 22.6404,11.9431111 L24.7684,11.9431111 L24.7684,10.8518889 C24.7684,8.47522222 23.8614667,7.47088889 21.5865333,7.47088889 C19.5421333,7.47088889 18.4072,8.33211111 18.1792,10.167 L15.8206667,10.167 C16.1322667,6.75533333 18.8328,5.49544444 21.7005333,5.49544444 C24.5404,5.49544444 27.1269333,6.66844444 27.1269333,10.8518889 L27.1269333,20.7393333 L24.7684,20.7393333 L24.7684,18.8482222 C23.6613333,20.2563333 22.3262667,21 20.1374667,21 C17.3812,21 15.1949333,19.6532222 15.1949333,16.5865556 L15.1949333,16.5865556 Z" id="Fill-11" fill="#FFFFFF" mask="url(#mask-2)"></path>
                            <path d="M31.5552,16.9877778 L31.5552,7.75711111 L29.4246667,7.75711111 L29.4246667,5.751 L31.5552,5.751 L31.5552,2.34188889 L33.9162667,2.34188889 L33.9162667,5.751 L37.3818667,5.751 L37.3818667,7.75711111 L33.9162667,7.75711111 L33.9162667,16.7577778 C33.9162667,18.2195556 34.5698667,18.9351111 35.7605333,18.9351111 C36.5002667,18.9351111 37.0677333,18.8201111 37.5794667,18.6182222 L37.5794667,20.6243333 C37.0981333,20.8006667 36.5281333,20.9412222 35.5629333,20.9412222 C32.8649333,20.9412222 31.5552,19.3388889 31.5552,16.9877778" id="Fill-12" fill="#FFFFFF" mask="url(#mask-2)"></path>
                        </g>
                        <path d="M40,45.2514669 L42.2786713,45.2514669 L42.2786713,47.9044426 C43.1842657,46.2397318 44.4202797,45.0854987 47,45 L47,47.1978206 C44.1167832,47.3386421 42.2786713,48.2690696 42.2786713,51.9077955 L42.2786713,60 L40,60 L40,45.2514669" id="Fill-14" fill="#FFFFFF"></path>
                        <path d="M50.410859,60 L52.6742301,60 L52.6742301,45.1982935 L50.410859,45.1982935 L50.410859,60 Z M50,40.5546208 C50,39.7066458 50.6831442,39 51.5,39 C52.3192869,39 53,39.7066458 53,40.5546208 C53,41.4076433 52.3192869,42.1117654 51.5,42.1117654 C50.6831442,42.1117654 50,41.4076433 50,40.5546208 L50,40.5546208 Z" id="Fill-15" fill="#FFFFFF"></path>
                        <g id="Group-19" transform="translate(56.000000, 44.000000)">
                            <mask id="mask-4" fill="white">
                                <use xlink:href="#path-3"></use>
                            </mask>
                            <g id="Clip-17"></g>
                            <path d="M0.175,0.656285714 L2.5,0.656285714 L2.5,2.96542857 C3.175,1.55114286 4.7725,0.399142857 6.8725,0.399142857 C8.7525,0.399142857 10.405,1.204 11.165,3.22257143 C12.1725,1.26314286 14.36,0.399142857 16.1825,0.399142857 C18.82,0.399142857 21.12,2.01142857 21.12,6.39828571 L21.12,15.7377143 L18.79,15.7377143 L18.79,6.22085714 C18.79,3.56971429 17.695,2.47428571 15.68,2.47428571 C13.7725,2.47428571 11.81,3.80114286 11.81,6.51142857 L11.81,15.7377143 L9.4825,15.7377143 L9.4825,6.22085714 C9.4825,3.56971429 8.39,2.47428571 6.37,2.47428571 C4.4625,2.47428571 2.5,3.80114286 2.5,6.51142857 L2.5,15.7377143 L0.175,15.7377143 L0.175,0.656285714" id="Fill-16" fill="#FFFFFF" mask="url(#mask-4)"></path>
                            <path d="M35.89,8.32942857 L35.89,8.12371429 C35.89,4.63685714 34.0125,2.38685714 31.095,2.38685714 C28.15,2.38685714 26.3,4.63685714 26.3,8.098 L26.3,8.32942857 C26.3,11.7597143 28.1225,14.0097143 31.095,14.0097143 C34.04,14.0097143 35.89,11.7314286 35.89,8.32942857 Z M23.89,8.32942857 L23.89,8.098 C23.89,3.56971429 26.9475,0.399142857 31.095,0.399142857 C35.245,0.399142857 38.3025,3.53885714 38.3025,8.06971429 L38.3025,8.30114286 C38.3025,12.8551429 35.245,16 31.0675,16 C26.89,16 23.89,12.7394286 23.89,8.32942857 L23.89,8.32942857 Z" id="Fill-18" fill="#FFFFFF" mask="url(#mask-4)"></path>
                        </g>
                        <path d="M98,45.2514669 L100.287823,45.2514669 L100.287823,47.5951383 C100.95203,46.2095557 102.551046,45 104.922509,45 C107.904059,45 110,46.6621961 110,50.9497066 L110,60 L107.709717,60 L107.709717,50.7787091 C107.709717,48.1835708 106.632226,47.0293378 104.317343,47.0293378 C102.191882,47.0293378 100.287823,48.409891 100.287823,51.0628667 L100.287823,60 L98,60 L98,45.2514669" id="Fill-20" fill="#FFFFFF"></path>
                        <g id="Group-31" transform="translate(113.000000, 37.000000)">
                            <mask id="mask-6" fill="white">
                                <use xlink:href="#path-5"></use>
                            </mask>
                            <g id="Clip-22"></g>
                            <path d="M0.8325,22.7393333 L3.16,22.7393333 L3.16,7.751 L0.8325,7.751 L0.8325,22.7393333 Z M0.41,3.04877778 C0.41,2.19011111 1.1125,1.47455556 1.9525,1.47455556 C2.795,1.47455556 3.495,2.19011111 3.495,3.04877778 C3.495,3.91255556 2.795,4.62555556 1.9525,4.62555556 C1.1125,4.62555556 0.41,3.91255556 0.41,3.04877778 L0.41,3.04877778 Z" id="Fill-21" fill="#FFFFFF" mask="url(#mask-6)"></path>
                            <path d="M18.1275,15.3767778 L18.1275,15.1723333 C18.1275,11.707 16.25,9.47088889 13.3325,9.47088889 C10.3875,9.47088889 8.5375,11.707 8.5375,15.1467778 L8.5375,15.3767778 C8.5375,18.7858889 10.36,21.022 13.3325,21.022 C16.2775,21.022 18.1275,18.7577778 18.1275,15.3767778 Z M6.1275,15.3767778 L6.1275,15.1467778 C6.1275,10.6464444 9.185,7.49544444 13.3325,7.49544444 C17.4825,7.49544444 20.54,10.6157778 20.54,15.1186667 L20.54,15.3486667 C20.54,19.8745556 17.4825,23 13.305,23 C9.1275,23 6.1275,19.7595556 6.1275,15.3767778 L6.1275,15.3767778 Z" id="Fill-23" fill="#FFFFFF" mask="url(#mask-6)"></path>
                            <path d="M29.3675,12.6218889 L29.3675,12.3944444 C29.3675,6.31988889 33.3475,1.93455556 38.7875,1.93455556 C42.965,1.93455556 46.5,4.19622222 46.92,8.64033333 L44.5075,8.64033333 C44,5.51488889 42.2375,3.91255556 38.815,3.91255556 C34.665,3.91255556 31.89,7.20666667 31.89,12.3663333 L31.89,12.5963333 C31.89,17.8122222 34.47,20.9632222 38.7875,20.9632222 C42.0675,20.9632222 44.3375,19.274 44.845,15.9466667 L47.115,15.9466667 C46.4125,20.6795556 43.22,23 38.73,23 C32.9275,23 29.3675,18.929 29.3675,12.6218889" id="Fill-24" fill="#FFFFFF" mask="url(#mask-6)"></path>
                            <path d="M49.8,17.2397778 L49.8,7.751 L52.13,7.751 L52.13,17.1247778 C52.13,19.7595556 53.225,20.9351111 55.525,20.9351111 C57.6,20.9351111 59.5625,19.5295556 59.5625,16.836 L59.5625,7.751 L61.885,7.751 L61.885,22.7393333 L59.5625,22.7393333 L59.5625,20.3652222 C58.8875,21.7656667 57.2625,23 54.9025,23 C51.9875,23 49.8,21.367 49.8,17.2397778" id="Fill-25" fill="#FFFFFF" mask="url(#mask-6)"></path>
                            <polygon id="Fill-26" fill="#FFFFFF" mask="url(#mask-6)" points="65.9475 22.7418889 68.3 22.7418889 68.3 0.587777778 65.9475 0.587777778"></polygon>
                            <path d="M72.8725,18.9877778 L72.8725,9.75711111 L70.7675,9.75711111 L70.7675,7.751 L72.8725,7.751 L72.8725,4.34188889 L75.2025,4.34188889 L75.2025,7.751 L78.62,7.751 L78.62,9.75711111 L75.2025,9.75711111 L75.2025,18.7577778 C75.2025,20.2195556 75.845,20.9351111 77.0225,20.9351111 C77.75,20.9351111 78.3125,20.8201111 78.815,20.6182222 L78.815,22.6243333 C78.34,22.8006667 77.78,22.9412222 76.8275,22.9412222 C74.1625,22.9412222 72.8725,21.3388889 72.8725,18.9877778" id="Fill-27" fill="#FFFFFF" mask="url(#mask-6)"></path>
                            <path d="M81.475,17.2397778 L81.475,7.751 L83.805,7.751 L83.805,17.1247778 C83.805,19.7595556 84.9,20.9351111 87.1975,20.9351111 C89.275,20.9351111 91.2375,19.5295556 91.2375,16.836 L91.2375,7.751 L93.56,7.751 L93.56,22.7393333 L91.2375,22.7393333 L91.2375,20.3652222 C90.5625,21.7656667 88.9375,23 86.5775,23 C83.6625,23 81.475,21.367 81.475,17.2397778" id="Fill-28" fill="#FFFFFF" mask="url(#mask-6)"></path>
                            <path d="M97.57,7.751 L99.8925,7.751 L99.8925,10.4471111 C100.8225,8.75533333 102.08,7.58233333 104.7175,7.49544444 L104.7175,9.729 C101.775,9.87211111 99.8925,10.8176667 99.8925,14.5155556 L99.8925,22.7393333 L97.57,22.7393333 L97.57,7.751" id="Fill-29" fill="#FFFFFF" mask="url(#mask-6)"></path>
                            <path d="M115.51,17.4978889 L115.51,15.6323333 L113.4875,15.6323333 C110.5425,15.6323333 108.385,16.3785556 108.385,18.5865556 C108.385,20.1352222 109.1175,21.1088889 111.1625,21.1088889 C113.63,21.1088889 115.51,19.8183333 115.51,17.4978889 Z M106.06,18.5865556 C106.06,15.1186667 109.65,13.9431111 113.405,13.9431111 L115.51,13.9431111 L115.51,12.8518889 C115.51,10.4752222 114.61,9.47088889 112.37,9.47088889 C110.3475,9.47088889 109.23,10.3321111 109.005,12.167 L106.675,12.167 C106.985,8.75533333 109.65,7.49544444 112.4825,7.49544444 C115.285,7.49544444 117.8325,8.66844444 117.8325,12.8518889 L117.8325,22.7393333 L115.51,22.7393333 L115.51,20.8482222 C114.415,22.2563333 113.0975,23 110.94,23 C108.22,23 106.06,21.6532222 106.06,18.5865556 L106.06,18.5865556 Z" id="Fill-30" fill="#FFFFFF" mask="url(#mask-6)"></path>
                        </g>
                        <polygon id="Fill-32" fill="#FFFFFF" points="234.0885 60 236.9115 60 236.9115 38 234.0885 38"></polygon>
                    </g>
                </g>
            </g>
        </g>
    </g>
</svg>